<svg width="181" height="90" viewBox="0 0 181 90" fill="none" xmlns="http://www.w3.org/2000/svg">
<g clip-path="url(#clip0_2_1601)">
<path d="M30.4681 38.9478H24.0951V45.3208H30.4681V38.9478Z" fill="#666666"/>
<path d="M43.1875 30.968H38.4211V35.7344H43.1875V30.968Z" fill="#666666"/>
<path d="M27.2773 23.0227L23.907 26.3931L27.2773 29.7634L30.6477 26.3931L27.2773 23.0227Z" fill="#666666"/>
<path d="M23.9076 57.8796L27.0406 61.0126H27.5226L30.6556 57.8796L27.2816 54.5056L23.9076 57.8796Z" fill="#666666"/>
<path d="M16.1153 30.968H11.4828V35.7344H16.1153V30.968Z" fill="#666666"/>
<path d="M43.1875 48.4805H38.4211V53.2469H43.1875V48.4805Z" fill="#666666"/>
<mask id="mask0_2_1601" style="mask-type:luminance" maskUnits="userSpaceOnUse" x="11" y="48" width="6" height="6">
<path d="M16.1153 48.4805H11.4828V53.2469H16.1153V48.4805Z" fill="white"/>
</mask>
<g mask="url(#mask0_2_1601)">
<path d="M13.8125 46.1509L18.5253 50.8637L13.8125 55.5766L9.09961 50.8637L13.8125 46.1509Z" fill="url(#paint0_linear_2_1601)"/>
</g>
<path d="M39.9474 36.5376C39.8938 37.6355 39.3851 38.9744 38.4211 40.4204C36.7073 42.991 33.8689 45.5081 30.4146 47.5164C26.6389 49.6854 22.6491 50.9439 19.4358 50.9439C18.3914 50.9439 17.5613 50.8101 16.9454 50.6226V52.2561C17.6952 52.4435 18.5253 52.5238 19.4358 52.5238C22.783 52.5238 27.0406 51.2921 31.2179 48.8821C37.3767 45.3207 41.4469 40.2865 41.5541 36.5376H39.9474Z" fill="#666666"/>
<path d="M14.6426 47.6772C14.6961 46.5793 15.2049 45.2404 16.1689 43.7944C17.8827 41.2237 20.7211 38.7067 24.1754 36.6983C27.951 34.5293 31.9409 33.2708 35.1542 33.2708C36.1985 33.2708 37.0019 33.4047 37.6178 33.5921V31.9587C36.868 31.7713 36.0379 31.6909 35.1542 31.6909C31.807 31.6909 27.5494 32.9227 23.3721 35.3327C17.2132 38.8941 13.143 43.9283 13.0359 47.6772H14.6426Z" fill="#666666"/>
<path d="M24.1754 47.5164C20.7211 45.5349 17.8827 43.0178 16.1689 40.4204C15.2049 38.9744 14.6961 37.6355 14.6426 36.5376H13.0359C13.1698 40.3132 17.2132 45.3207 23.3721 48.8821C27.5494 51.2921 31.807 52.5238 35.1542 52.5238C36.0379 52.5238 36.868 52.4435 37.6178 52.2561V50.6226C37.0019 50.8101 36.1718 50.9439 35.1542 50.9439C31.9409 50.9439 27.951 49.6854 24.1754 47.5164Z" fill="#666666"/>
<path d="M31.2179 35.3327C27.0406 32.9227 22.783 31.6909 19.4358 31.6909C18.5253 31.6909 17.6952 31.7713 16.9454 31.9587V33.5921C17.5881 33.4047 18.3914 33.2708 19.4358 33.2708C22.6491 33.2708 26.6389 34.5293 30.4146 36.6983C33.8689 38.6799 36.7073 41.197 38.4211 43.7944C39.3851 45.2404 39.8938 46.5793 39.9474 47.6772H41.5541C41.4469 43.9283 37.3767 38.8941 31.2179 35.3327Z" fill="#666666"/>
<path d="M24.1219 56.594L25.2465 55.4694C24.4967 54.8267 23.8005 53.8627 23.1846 52.6042C21.819 49.8193 21.0692 46.0972 21.0692 42.1341C21.0692 38.1443 21.819 34.4222 23.1846 31.6373C23.7738 30.4323 24.4432 29.4951 25.1662 28.8524L24.0415 27.7278C21.337 30.2181 19.4626 35.7343 19.4626 42.1341C19.4626 48.5875 21.3905 54.1305 24.1219 56.594Z" fill="#666666"/>
<path d="M31.4054 31.6372C32.771 34.4221 33.5208 38.1442 33.5208 42.1073C33.5208 46.0971 32.771 49.8192 31.4054 52.6041C30.7895 53.8626 30.0665 54.8266 29.3167 55.4693L30.4414 56.594C33.1995 54.1304 35.1007 48.5875 35.1007 42.1073C35.1007 35.7074 33.2262 30.218 30.5217 27.7009L29.397 28.8256C30.1468 29.495 30.8163 30.4322 31.4054 31.6372Z" fill="#666666"/>
<path d="M52.881 50.8635H55.9069C56.7637 50.8635 57.4867 50.9706 58.0491 51.1849C58.6382 51.3991 59.1202 51.6669 59.5218 52.015C59.9235 52.3631 60.218 52.7112 60.459 53.1396C60.6733 53.5413 60.8607 53.9429 60.9678 54.3178C61.0749 54.6927 61.1285 55.0408 61.1553 55.3354C61.182 55.6299 61.2088 55.8442 61.2088 55.9781C61.2088 56.1119 61.182 56.3262 61.1553 56.6207C61.1285 56.9153 61.0482 57.2634 60.9678 57.6383C60.8607 58.0131 60.7 58.4148 60.459 58.8165C60.2448 59.2181 59.9235 59.593 59.5218 59.9411C59.1202 60.2892 58.6382 60.557 58.0491 60.7712C57.46 60.9855 56.737 61.0926 55.9069 61.0926H52.881V50.8635ZM53.7914 60.2089H55.6659C56.3085 60.2089 56.9244 60.1286 57.4867 59.9679C58.0491 59.8072 58.5311 59.5395 58.9595 59.1914C59.3879 58.8433 59.7093 58.4148 59.9503 57.8793C60.1913 57.3437 60.2984 56.7278 60.2984 55.9781C60.2984 55.2551 60.1913 54.6124 59.9503 54.0768C59.7093 53.5413 59.3879 53.1128 58.9595 52.7647C58.5311 52.4166 58.0491 52.1489 57.4867 51.9882C56.9244 51.8275 56.3085 51.7472 55.6659 51.7472H53.7914V60.2089Z" fill="#666666"/>
<path d="M65.9485 50.8635H66.8857L71.0094 61.039H69.9651L68.894 58.3345H63.6992L62.6013 61.039H61.6641L65.9485 50.8635ZM66.3769 51.9079L64.1008 57.4776H68.5995L66.3769 51.9079Z" fill="#666666"/>
<path d="M72.9642 51.7472H69.617V50.8635H77.2218V51.7472H73.8746V61.0658H72.9642V51.7472Z" fill="#666666"/>
<path d="M81.051 50.8635H81.9883L86.112 61.039H85.0945L84.0234 58.3345H78.8285L77.7306 61.039H76.7666L81.051 50.8635ZM81.4795 51.9079L79.2034 57.4776H83.702L81.4795 51.9079Z" fill="#666666"/>
<path d="M90.5035 59.111C90.7445 59.5395 91.0391 59.8608 91.414 60.0483C91.7888 60.2625 92.2173 60.3696 92.6993 60.3696C92.9938 60.3696 93.2884 60.316 93.5294 60.2357C93.7972 60.1286 94.0114 60.0215 94.2256 59.834C94.4131 59.6734 94.5737 59.4592 94.6808 59.2182C94.7879 58.9772 94.8415 58.7094 94.8415 58.4148C94.8415 58.0667 94.7612 57.7722 94.6273 57.558C94.4934 57.3437 94.3059 57.1563 94.0649 56.9956C93.8239 56.8617 93.5562 56.7278 93.2616 56.6207C92.9671 56.5136 92.6725 56.4065 92.3512 56.2994C92.0298 56.1923 91.7353 56.0852 91.4407 55.9513C91.1462 55.8174 90.8784 55.6567 90.6374 55.4425C90.3964 55.2283 90.209 54.9605 90.0751 54.6392C89.9412 54.3179 89.8609 53.9162 89.8609 53.461C89.8609 53.0325 89.9412 52.6309 90.1019 52.2828C90.2625 51.9346 90.5035 51.6669 90.7713 51.4259C91.0659 51.1849 91.3872 51.0242 91.7621 50.8903C92.137 50.7832 92.5118 50.7029 92.9403 50.7029C93.4758 50.7029 93.9578 50.81 94.3863 50.9974C94.8415 51.1849 95.2164 51.5062 95.5377 51.9614L94.7612 52.5505C94.5202 52.2292 94.2792 51.9614 93.9578 51.8008C93.6633 51.6401 93.2884 51.5598 92.8867 51.5598C92.5922 51.5598 92.3244 51.5865 92.0566 51.6937C91.7888 51.774 91.5746 51.8811 91.3604 52.0418C91.173 52.2024 91.0123 52.3899 90.9052 52.6309C90.7981 52.8719 90.7177 53.1396 90.7177 53.461C90.7177 53.9698 90.8516 54.3446 91.0926 54.6124C91.3336 54.8802 91.655 55.0944 92.0031 55.2551C92.3779 55.4157 92.7796 55.5496 93.2081 55.6567C93.6365 55.7638 94.0382 55.9245 94.413 56.1387C94.7879 56.3262 95.0825 56.6207 95.3235 56.9688C95.5645 57.3169 95.6984 57.7989 95.6984 58.4416C95.6984 58.8968 95.618 59.2985 95.4574 59.6466C95.2967 59.9947 95.0825 60.2893 94.7879 60.5303C94.5202 60.7713 94.1988 60.9587 93.8239 61.0658C93.4758 61.1997 93.0742 61.2533 92.6993 61.2533C92.0566 61.2533 91.4943 61.1461 90.9587 60.9052C90.4232 60.6642 89.968 60.2893 89.5931 59.7537L90.5035 59.111Z" fill="#666666"/>
<path d="M156.912 59.111C157.153 59.5395 157.448 59.8608 157.822 60.0483C158.197 60.2625 158.626 60.3696 159.108 60.3696C159.402 60.3696 159.697 60.316 159.938 60.2357C160.206 60.1286 160.42 60.0215 160.634 59.834C160.822 59.6734 160.982 59.4592 161.089 59.2182C161.196 58.9772 161.25 58.7094 161.25 58.4148C161.25 58.0667 161.17 57.7722 161.036 57.558C160.902 57.3437 160.714 57.1563 160.473 56.9956C160.232 56.8617 159.965 56.7278 159.67 56.6207C159.376 56.5136 159.081 56.4065 158.76 56.2994C158.438 56.1923 158.144 56.0852 157.849 55.9513C157.555 55.8174 157.287 55.6567 157.046 55.4425C156.805 55.2283 156.617 54.9605 156.484 54.6392C156.35 54.3179 156.269 53.9162 156.269 53.461C156.269 53.0325 156.35 52.6309 156.51 52.2828C156.671 51.9346 156.912 51.6669 157.18 51.4259C157.474 51.1849 157.796 51.0242 158.171 50.8903C158.545 50.7832 158.92 50.7029 159.349 50.7029C159.884 50.7029 160.366 50.81 160.795 50.9974C161.25 51.1849 161.625 51.5062 161.946 51.9614L161.17 52.5505C160.929 52.2292 160.688 51.9614 160.366 51.8008C160.072 51.6401 159.697 51.5598 159.295 51.5598C159.001 51.5598 158.733 51.5865 158.465 51.6937C158.197 51.774 157.983 51.8811 157.769 52.0418C157.581 52.2024 157.421 52.3899 157.314 52.6309C157.207 52.8719 157.126 53.1396 157.126 53.461C157.126 53.9698 157.26 54.3446 157.501 54.6124C157.742 54.8802 158.063 55.0944 158.412 55.2551C158.786 55.4157 159.188 55.5496 159.617 55.6567C160.045 55.7638 160.447 55.9245 160.822 56.1387C161.196 56.3262 161.491 56.6207 161.732 56.9688C161.973 57.3169 162.107 57.7989 162.107 58.4416C162.107 58.8968 162.027 59.2985 161.866 59.6466C161.705 59.9947 161.491 60.2893 161.196 60.5303C160.929 60.7713 160.607 60.9587 160.232 61.0658C159.884 61.1997 159.483 61.2533 159.108 61.2533C158.465 61.2533 157.903 61.1461 157.367 60.9052C156.832 60.6642 156.376 60.2893 156.002 59.7537L156.912 59.111Z" fill="#666666"/>
<path d="M96.9837 55.9781C96.9837 55.2283 97.1176 54.5053 97.3586 53.8626C97.5996 53.22 97.9477 52.6576 98.3761 52.2024C98.8046 51.7472 99.3401 51.3723 99.9292 51.1045C100.545 50.8368 101.215 50.7029 101.938 50.7029C102.661 50.7029 103.33 50.8368 103.946 51.1045C104.562 51.3723 105.071 51.7204 105.526 52.2024C105.954 52.6576 106.302 53.22 106.543 53.8626C106.784 54.5053 106.918 55.2015 106.918 55.9781C106.918 56.7278 106.784 57.4508 106.543 58.0935C106.302 58.7362 105.954 59.2985 105.526 59.7537C105.097 60.2089 104.562 60.5838 103.946 60.8516C103.33 61.1194 102.661 61.2533 101.938 61.2533C101.215 61.2533 100.545 61.1194 99.9292 60.8516C99.3134 60.5838 98.8046 60.2357 98.3761 59.7537C97.9477 59.2985 97.5996 58.7362 97.3586 58.0935C97.1176 57.4241 96.9837 56.7278 96.9837 55.9781ZM97.8941 55.9781C97.8941 56.594 98.0013 57.1831 98.1887 57.7186C98.3761 58.2542 98.6439 58.7094 98.992 59.111C99.3401 59.5127 99.7686 59.8073 100.277 60.0483C100.786 60.2625 101.348 60.3964 101.964 60.3964C102.58 60.3964 103.143 60.2893 103.651 60.0483C104.16 59.834 104.589 59.5127 104.937 59.111C105.285 58.7094 105.553 58.2542 105.74 57.7186C105.927 57.1831 106.035 56.594 106.035 55.9781C106.035 55.3622 105.927 54.7731 105.74 54.2375C105.553 53.702 105.285 53.2468 104.937 52.8451C104.589 52.4434 104.16 52.1489 103.651 51.9079C103.143 51.6937 102.58 51.5598 101.964 51.5598C101.348 51.5598 100.786 51.6669 100.277 51.9079C99.7686 52.1221 99.3401 52.4434 98.992 52.8451C98.6439 53.2468 98.3761 53.702 98.1887 54.2375C97.9745 54.7731 97.8941 55.3354 97.8941 55.9781Z" fill="#666666"/>
<path d="M135.436 55.9781C135.436 55.2283 135.57 54.5053 135.811 53.8626C136.052 53.22 136.4 52.6576 136.829 52.2024C137.257 51.7472 137.793 51.3723 138.382 51.1045C138.998 50.8368 139.667 50.7029 140.39 50.7029C141.113 50.7029 141.783 50.8368 142.399 51.1045C143.014 51.3723 143.523 51.7204 143.978 52.2024C144.407 52.6576 144.755 53.22 144.996 53.8626C145.237 54.5053 145.371 55.2015 145.371 55.9781C145.371 56.7278 145.237 57.4508 144.996 58.0935C144.755 58.7362 144.407 59.2985 143.978 59.7537C143.55 60.2089 143.014 60.5838 142.399 60.8516C141.783 61.1194 141.113 61.2533 140.39 61.2533C139.667 61.2533 138.998 61.1194 138.382 60.8516C137.766 60.5838 137.257 60.2357 136.829 59.7537C136.4 59.2985 136.052 58.7362 135.811 58.0935C135.57 57.4241 135.436 56.7278 135.436 55.9781ZM136.347 55.9781C136.347 56.594 136.454 57.1831 136.641 57.7186C136.829 58.2542 137.097 58.7094 137.445 59.111C137.793 59.5127 138.221 59.8073 138.73 60.0483C139.239 60.2625 139.801 60.3964 140.417 60.3964C141.033 60.3964 141.595 60.2893 142.104 60.0483C142.613 59.834 143.041 59.5127 143.389 59.111C143.737 58.7094 144.005 58.2542 144.193 57.7186C144.38 57.1831 144.487 56.594 144.487 55.9781C144.487 55.3622 144.38 54.7731 144.193 54.2375C144.005 53.702 143.737 53.2468 143.389 52.8451C143.041 52.4434 142.613 52.1489 142.104 51.9079C141.595 51.6937 141.033 51.5598 140.417 51.5598C139.801 51.5598 139.239 51.6669 138.73 51.9079C138.221 52.1221 137.793 52.4434 137.445 52.8451C137.097 53.2468 136.829 53.702 136.641 54.2375C136.427 54.7731 136.347 55.3354 136.347 55.9781Z" fill="#666666"/>
<path d="M108.846 50.8635H109.757V60.2089H114.309V61.0658H108.846V50.8635Z" fill="#666666"/>
<path d="M122.396 57.1563C122.396 57.6918 122.342 58.2274 122.208 58.7361C122.101 59.2449 121.887 59.6734 121.619 60.0482C121.325 60.4231 120.976 60.7445 120.521 60.9587C120.066 61.1997 119.504 61.3068 118.834 61.3068C118.165 61.3068 117.602 61.1997 117.147 60.9587C116.692 60.7177 116.317 60.4231 116.049 60.0482C115.782 59.6734 115.567 59.2181 115.46 58.7361C115.353 58.2274 115.273 57.7186 115.273 57.1563V50.8635H116.183V56.9153C116.183 57.2902 116.21 57.665 116.29 58.0935C116.344 58.4951 116.478 58.8968 116.665 59.2449C116.853 59.593 117.12 59.8876 117.469 60.1286C117.817 60.3696 118.272 60.4767 118.834 60.4767C119.397 60.4767 119.852 60.3696 120.2 60.1286C120.548 59.8876 120.816 59.593 121.003 59.2449C121.191 58.8968 121.325 58.4951 121.378 58.0935C121.432 57.6918 121.485 57.2902 121.485 56.9153V50.8635H122.396V57.1563Z" fill="#666666"/>
<path d="M126.734 51.7472H123.386V50.8635H130.991V51.7472H127.644V61.0658H126.734V51.7472Z" fill="#666666"/>
<path d="M133.107 50.8635H132.196V61.039H133.107V50.8635Z" fill="#666666"/>
<path d="M146.683 50.8635H147.861L153.806 59.8072H153.833V50.8635H154.743V61.0658H153.565L147.62 52.1488H147.593V61.0658H146.683V50.8635Z" fill="#666666"/>
<path d="M63.3511 23.363L52.7739 47.7307H58.7185L60.7536 42.7768H70.2597L72.0805 47.7039H78.1591L67.8229 23.363H63.3511ZM61.8515 38.9208L65.4933 29.3612L69.2421 38.9208H61.8515Z" fill="#666666"/>
<mask id="mask1_2_1601" style="mask-type:luminance" maskUnits="userSpaceOnUse" x="75" y="23" width="32" height="25">
<path d="M78.9624 23.363C77.088 23.363 75.5884 24.8626 75.5884 26.737V28.0759H82.3899V47.5432H87.8258V28.0759H94.306V47.5432H100.143V28.0759H103.384C105.258 28.0759 106.758 26.5763 106.758 24.7019V23.363H78.9624Z" fill="white"/>
</mask>
<g mask="url(#mask1_2_1601)">
<path d="M106.784 23.363H75.5884V47.57H106.784V23.363Z" fill="url(#paint1_linear_2_1601)"/>
</g>
<path d="M128.769 26.6835C127.671 25.6392 126.359 24.8359 124.832 24.2468C123.306 23.6844 121.646 23.3899 119.852 23.3899C118.058 23.3899 116.397 23.6844 114.871 24.2468C113.345 24.8091 112.033 25.6124 110.935 26.6835C109.837 27.7279 108.953 29.0132 108.337 30.5127C107.722 32.0123 107.4 33.6725 107.4 35.5202C107.4 37.3678 107.722 39.028 108.337 40.5276C108.953 42.0271 109.81 43.3124 110.935 44.3568C112.033 45.4011 113.345 46.2044 114.871 46.7935C116.397 47.3559 118.058 47.6504 119.852 47.6504C121.646 47.6504 123.306 47.3559 124.832 46.7935C126.359 46.2312 127.671 45.4279 128.769 44.3568C129.867 43.3124 130.75 42.0271 131.366 40.5276C131.982 39.028 132.303 37.3678 132.303 35.5202C132.303 33.6725 131.982 32.0123 131.366 30.5127C130.75 29.0132 129.893 27.7279 128.769 26.6835ZM126.519 38.4925C126.171 39.4029 125.689 40.1795 125.073 40.8489C124.431 41.5183 123.681 42.0271 122.797 42.402C121.914 42.7769 120.923 42.9643 119.852 42.9643C118.781 42.9643 117.79 42.7769 116.906 42.402C116.023 42.0271 115.273 41.5183 114.657 40.8489C114.014 40.1795 113.532 39.4029 113.211 38.4925C112.863 37.582 112.702 36.5913 112.702 35.5202C112.702 34.449 112.863 33.4583 113.211 32.5478C113.559 31.6374 114.041 30.8608 114.657 30.1914C115.273 29.522 116.049 29.0132 116.906 28.6383C117.79 28.2634 118.754 28.076 119.852 28.076C120.923 28.076 121.914 28.2634 122.797 28.6383C123.681 29.0132 124.431 29.522 125.073 30.1914C125.689 30.8608 126.171 31.6374 126.519 32.5478C126.868 33.4583 127.028 34.449 127.028 35.5202C127.028 36.618 126.868 37.6088 126.519 38.4925Z" fill="#666666"/>
<path d="M154.315 23.363L148.798 39.0547H148.745L143.229 23.363H135.276V47.4093H140.551V28.9596H140.604L146.629 47.4093H150.646L156.912 28.9596H156.992V47.4093H162.241V23.363H154.315Z" fill="#666666"/>
<path d="M167.195 26.6835H166.498V23.9521H165.615V23.363H168.105V23.9521H167.195V26.6835Z" fill="#666666"/>
<path d="M170.033 26.6835L169.23 24.0861H169.203C169.23 24.6217 169.256 24.9698 169.256 25.1572V26.7103H168.641V23.3899H169.605L170.381 25.9338H170.408L171.238 23.3899H172.202V26.7103H171.559V25.1304C171.559 25.0501 171.559 24.9698 171.559 24.8627C171.559 24.7556 171.559 24.5146 171.586 24.0861H171.559L170.702 26.6835H170.033Z" fill="#666666"/>
</g>
<defs>
<linearGradient id="paint0_linear_2_1601" x1="11.444" y1="48.4973" x2="16.202" y2="53.2554" gradientUnits="userSpaceOnUse">
<stop stop-color="#EE4036"/>
<stop offset="0.4972" stop-color="#EE4036"/>
<stop offset="0.51" stop-color="#B21D2A"/>
<stop offset="1" stop-color="#B21D2A"/>
</linearGradient>
<linearGradient id="paint1_linear_2_1601" x1="75.5976" y1="35.4531" x2="106.782" y2="35.4531" gradientUnits="userSpaceOnUse">
<stop stop-color="#EE4036"/>
<stop offset="0.4972" stop-color="#EE4036"/>
<stop offset="0.51" stop-color="#B21D2A"/>
<stop offset="1" stop-color="#B21D2A"/>
</linearGradient>
<clipPath id="clip0_2_1601">
<rect width="180" height="90" fill="white" transform="translate(0.75)"/>
</clipPath>
</defs>
</svg>
