<svg width="151" height="70" viewBox="0 0 151 70" fill="none" xmlns="http://www.w3.org/2000/svg">
<g clip-path="url(#clip0_2_1450)">
<g clip-path="url(#clip1_2_1450)">
<path d="M27.6899 0H120.13V70H27.6899V0Z" fill="white"/>
<path d="M29.1859 1.55835H118.571V55.4141H29.1859V1.55835Z" fill="#0033A1"/>
<path d="M118.322 1.55835L65.1521 55.4141H65.9001L118.571 2.05701V1.55835L118.322 1.55835ZM32.1779 55.4141H32.7389L36.2919 1.55835H35.7309L32.1779 55.4141ZM34.9829 55.4141H35.5439L43.2732 1.55835H42.7122L34.9829 55.4141ZM38.0372 55.4141H38.5982L50.6285 1.55835H50.0675L38.0372 55.4141ZM41.3408 55.4141H41.9642L59.1058 1.55835H58.5448L41.3408 55.4141ZM44.5198 55.4141H45.0808L67.1467 1.55835H66.5857L44.5198 55.4141ZM48.1351 55.4141H48.7585L76.3097 1.55835H75.6863L48.1351 55.4141ZM54.3684 55.4141L90.0853 1.55835H89.4619L53.7451 55.4141H54.3684ZM59.4174 55.4141L102.864 1.55835H102.116L58.7318 55.4141H59.4174ZM76.4343 55.4141L118.571 21.9413V21.1933L75.4993 55.4141H76.4343ZM88.7139 55.4141L118.571 36.7765V36.0909L87.6543 55.4141H88.7139ZM108.536 55.4141L118.571 50.7391V50.1158L107.227 55.4141H108.536Z" fill="white"/>
<path d="M49.1948 39.0206C39.9072 39.0206 33.6115 33.2859 33.6115 23.9983C33.6115 14.96 40.3435 8.60205 49.3195 8.60205C51.6881 8.60205 54.3061 9.03838 56.3008 9.97338V14.399C55.3034 13.09 53.3088 10.7837 49.3818 10.7837C43.7718 10.7837 40.5928 15.895 40.5928 23.3126C40.5928 31.1043 43.5848 36.6519 49.9428 36.6519C52.1868 36.6519 54.9918 35.5299 56.2384 34.3456L57.2981 36.6519C56.1138 37.6492 53.8698 39.0206 49.1948 39.0206ZM79.6133 23.8113C79.6133 35.2806 72.5074 36.0909 67.0844 36.0909V11.3447C72.6944 11.3447 79.6133 12.0304 79.6133 23.8113ZM72.258 38.4596C77.868 38.4596 86.5323 34.9689 86.5323 23.6866C86.5323 11.781 77.9927 9.10072 71.5724 9.10072H60.9134V38.4596H72.258ZM105.544 39.0206C96.2562 39.0206 89.9606 33.2859 89.9606 23.9983C89.9606 14.96 96.6926 8.60205 105.669 8.60205C108.037 8.60205 110.655 9.03838 112.65 9.97338V14.399C111.652 13.09 109.658 10.7837 105.731 10.7837C100.121 10.7837 96.9419 15.895 96.9419 23.3126C96.9419 31.1043 99.9339 36.6519 106.292 36.6519C108.536 36.6519 111.341 35.5299 112.588 34.3456L113.647 36.6519C112.4 37.6492 110.157 39.0206 105.544 39.0206Z" fill="white" stroke="white" stroke-width="0.278005"/>
<path d="M120.379 58.3438H121.439V58.5308H121.002V59.7151H120.815V58.5308H120.379V58.3438ZM122.685 59.6527V58.5931L122.311 59.7151H122.124L121.75 58.5931V59.6527H121.563V58.3438H121.813L122.187 59.4657L122.561 58.3438H122.81V59.6527H122.685ZM32.6142 59.7774L32.5519 59.7151V59.6527C32.5519 59.5281 32.0532 59.3411 31.5546 59.3411C31.0559 59.3411 30.3702 59.5904 30.3702 60.2137C30.3702 60.8371 31.0559 61.0864 31.5546 61.0864C31.8039 61.0864 32.6142 60.8994 32.6142 60.7124C32.6142 60.6501 32.6142 60.6501 32.5519 60.5877L32.6142 60.5254L33.2375 61.5227L33.1752 61.5851C33.1752 61.5227 33.1129 61.5227 33.1129 61.5227C32.9882 61.5227 32.4272 61.8344 31.4922 61.8344C30.4949 61.8344 29.4352 61.2734 29.4352 60.1514C29.4352 59.0294 30.4949 58.4684 31.4922 58.4684C31.9909 58.4684 32.3649 58.5308 32.6142 58.5931C32.8635 58.6554 32.9882 58.7177 33.0505 58.7177C33.1129 58.7177 33.1129 58.7177 33.1752 58.6554H33.2375L32.6142 59.7774ZM37.6632 61.2734C37.7255 61.2734 37.7879 61.2111 37.8502 61.0864H37.9125V61.8967H37.8502C37.7879 61.7721 37.7879 61.7721 37.6632 61.7721H34.8582V61.7097C34.9205 61.7097 35.0452 61.7097 35.0452 61.5851V59.2164C35.0452 59.1541 34.9829 59.0917 34.8582 59.0917V59.0294H37.7255C37.7879 59.0294 37.8502 59.0294 37.8502 58.9047H37.9125V59.7151H37.8502C37.8502 59.5904 37.7879 59.5904 37.7255 59.5904H35.9179V60.0891H37.1022C37.1645 60.0891 37.2269 60.0891 37.2269 59.9644H37.2892V60.7747H37.2269C37.2269 60.6501 37.1645 60.6501 37.1022 60.6501H35.9179V61.2734H37.6632ZM42.8992 61.6474C42.8992 61.7097 42.9615 61.7721 43.0862 61.7721V61.8344H41.9018V61.7721C41.9642 61.7721 42.0888 61.7721 42.0888 61.7097C42.0888 61.5851 41.2785 60.8371 40.5928 60.0267V61.6474C40.5928 61.7097 40.6552 61.7721 40.7798 61.7721V61.8344H39.7202V61.7721C39.7825 61.7721 39.9072 61.7721 39.9072 61.6474V59.2787C39.9072 59.2164 39.8448 59.1541 39.7202 59.1541V59.0917H41.2162V59.1541C41.1538 59.1541 41.0915 59.1541 41.0915 59.2787C41.0915 59.3411 41.7148 59.9644 42.2135 60.5254V59.2787C42.2135 59.2164 42.1512 59.1541 42.0265 59.1541V59.0917H43.1485V59.1541C43.0238 59.1541 42.9615 59.1541 42.9615 59.2787V61.6474H42.8992ZM47.4495 59.0917C47.5118 59.0917 47.5741 59.0917 47.5741 58.9671H47.6365V59.9021H47.5741C47.5741 59.7774 47.5118 59.7774 47.4495 59.7774H46.5768V61.7097C46.5768 61.7721 46.6391 61.8344 46.7015 61.8344V61.8967H45.5795V61.8344C45.6418 61.8344 45.7041 61.8344 45.7041 61.7097V59.7774H44.8315C44.7692 59.7774 44.7068 59.7774 44.7068 59.9021H44.6445V58.9671H44.7068C44.7068 59.0917 44.7692 59.0917 44.8315 59.0917H47.4495ZM51.9375 61.2734C51.9998 61.2734 52.0621 61.2111 52.1245 61.0864H52.1868V61.8967H52.1245C52.0621 61.7721 52.0621 61.7721 51.9375 61.7721H49.1325V61.7097C49.1948 61.7097 49.3195 61.7097 49.3195 61.5851V59.2164C49.3195 59.1541 49.2571 59.0917 49.1325 59.0917V59.0294H51.9998C52.0621 59.0294 52.1245 59.0294 52.1245 58.9047H52.1868V59.7151H52.1245C52.1245 59.5904 52.0621 59.5904 51.9998 59.5904H50.1921V60.0891H51.3765C51.4388 60.0891 51.5011 60.0891 51.5011 59.9644H51.5635V60.7747H51.5011C51.5011 60.6501 51.4388 60.6501 51.3765 60.6501H50.1921V61.2734H51.9375ZM54.9294 59.5904H55.8021C56.1761 59.5904 56.3008 59.7151 56.3008 59.9021C56.3008 60.1514 56.1138 60.2137 55.8644 60.2137H54.9918V59.5904H54.9294ZM54.1191 61.6474C54.1191 61.7097 54.0568 61.7721 53.9944 61.7721V61.8344H55.0541V61.7721C54.9918 61.7721 54.8671 61.7721 54.8671 61.6474V60.8371H55.4904C55.5528 60.9617 55.9891 61.6474 55.9891 61.7097C55.9891 61.7721 55.8644 61.7721 55.8644 61.7721V61.8344H57.1111V61.7721C57.0488 61.7721 56.9241 61.7097 56.8618 61.6474L56.3008 60.8371C56.6748 60.7124 56.9864 60.4631 56.9864 59.9644C56.9864 59.4034 56.5501 59.0917 55.9891 59.0917H53.9944V59.1541C54.0568 59.1541 54.1191 59.1541 54.1191 59.2787V61.6474ZM58.7941 60.8994L58.8564 60.9617V61.0241C58.8564 61.2111 59.6044 61.3357 60.1031 61.3357C60.2277 61.3357 60.6641 61.3357 60.6641 61.0864C60.6641 60.5877 58.6071 61.0864 58.6071 60.0267C58.6071 59.6527 58.9811 59.0917 59.9784 59.0917C60.6017 59.0917 61.1004 59.2787 61.2251 59.2787C61.2874 59.2787 61.3497 59.2164 61.3497 59.2164H61.4121L61.0381 60.0267L60.9757 59.9644V59.9021C60.9757 59.8397 60.5394 59.6527 60.1031 59.6527C59.9161 59.6527 59.4174 59.6527 59.4174 59.9021C59.4174 60.3384 61.4744 59.9021 61.4744 60.9617C61.4744 61.4604 61.0381 61.8967 60.1031 61.8967C59.4797 61.8967 58.7941 61.6474 58.7318 61.6474C58.6694 61.6474 58.6071 61.7097 58.6071 61.7097H58.5448L58.7941 60.8994ZM68.9544 59.2787C68.9544 59.2164 68.892 59.1541 68.7674 59.1541V59.0917H71.51C71.5724 59.0917 71.6347 59.0917 71.6347 58.9671H71.697V59.8397H71.6347C71.6347 59.7151 71.5724 59.7151 71.51 59.7151H69.827V60.2761H70.949C71.0114 60.2761 71.0737 60.2761 71.0737 60.1514H71.136V60.9617H71.0737C71.0737 60.8371 71.0114 60.8371 70.949 60.8371H69.827V61.7097C69.827 61.7721 69.8894 61.8344 70.014 61.8344V61.8967H68.7674V61.8344C68.892 61.8344 68.9544 61.8344 68.9544 61.7097V59.2787ZM74.689 59.7151C75.1877 59.7151 75.5617 60.0267 75.5617 60.4631C75.5617 60.8994 75.1877 61.2111 74.689 61.2111C74.1903 61.2111 73.8163 60.8994 73.8163 60.4631C73.8787 60.0267 74.2527 59.7151 74.689 59.7151ZM74.689 59.0294C73.8787 59.0294 73.006 59.4657 73.006 60.4631C73.006 61.4604 73.8787 61.8967 74.689 61.8967C75.4993 61.8967 76.372 61.4604 76.372 60.4631C76.372 59.4657 75.4993 59.0294 74.689 59.0294ZM78.9277 59.5904H79.8003C80.1743 59.5904 80.299 59.7151 80.299 59.9021C80.299 60.1514 80.112 60.2137 79.8627 60.2137H78.99V59.5904H78.9277ZM78.1173 61.6474C78.1173 61.7097 78.055 61.7721 77.9927 61.7721V61.8344H79.0523V61.7721C78.99 61.7721 78.8653 61.7721 78.8653 61.6474V60.8371H79.4887C79.551 60.9617 79.9873 61.6474 79.9873 61.7097C79.9873 61.7721 79.8627 61.7721 79.8627 61.7721V61.8344H81.1093V61.7721C81.047 61.7721 80.9223 61.7097 80.86 61.6474L80.299 60.8371C80.673 60.7124 80.9846 60.4631 80.9846 59.9644C80.9846 59.4034 80.5483 59.0917 79.925 59.0917H77.9303V59.1541C77.9927 59.1541 78.055 59.1541 78.055 59.2787V61.6474H78.1173ZM89.6489 59.2787H90.4593C91.1449 59.2787 91.3943 59.6527 91.3943 60.2137C91.3943 60.7747 91.1449 61.1487 90.4593 61.1487H89.6489V59.2787ZM88.7139 61.6474C88.7139 61.7097 88.7139 61.7721 88.5269 61.7721V61.8344H90.5216C91.7059 61.8344 92.2669 61.0241 92.2669 60.2137C92.2669 59.2787 91.7059 58.5931 90.5839 58.5931H88.5269V58.6554C88.7139 58.6554 88.7139 58.7178 88.7139 58.7801V61.6474ZM95.1342 59.0917V59.1541C95.0096 59.1541 94.9472 59.1541 94.9472 59.2787V61.6474C94.9472 61.7097 95.0096 61.7721 95.1342 61.7721V61.8344H93.8876V61.7721C94.0123 61.7721 94.0746 61.7721 94.0746 61.6474V59.2787C94.0746 59.2164 94.0123 59.1541 93.8876 59.1541V59.0917H95.1342ZM96.9419 60.8994L97.0042 60.9617V61.0241C97.0042 61.2111 97.7522 61.3357 98.2509 61.3357C98.4379 61.3357 98.8119 61.3357 98.8119 61.0864C98.8119 60.5877 96.7549 61.0864 96.7549 60.0267C96.7549 59.6527 97.1289 59.0917 98.1262 59.0917C98.7496 59.0917 99.2482 59.2787 99.3729 59.2787C99.4352 59.2787 99.4976 59.2164 99.4976 59.2164H99.5599L99.1859 60.0267L99.1236 59.9644V59.9021C99.1236 59.8397 98.6872 59.6527 98.2509 59.6527C98.0639 59.6527 97.5652 59.6527 97.5652 59.9021C97.5652 60.3384 99.6222 59.9021 99.6222 60.9617C99.6222 61.4604 99.1859 61.8967 98.2509 61.8967C97.6276 61.8967 96.9419 61.6474 96.8796 61.6474C96.8172 61.6474 96.7549 61.7097 96.7549 61.7097H96.6926L96.9419 60.8994ZM104.048 61.2734C104.11 61.2734 104.173 61.2111 104.235 61.0864H104.297V61.8967H104.235C104.173 61.7721 104.173 61.7721 104.048 61.7721H101.243V61.7097C101.305 61.7097 101.43 61.7097 101.43 61.5851V59.2164C101.43 59.1541 101.368 59.0917 101.243 59.0917V59.0294H104.11C104.173 59.0294 104.235 59.0294 104.235 58.9047H104.297V59.7151H104.235C104.235 59.5904 104.173 59.5904 104.11 59.5904H102.303V60.0891H103.487C103.549 60.0891 103.612 60.0891 103.612 59.9644H103.674V60.7747H103.612C103.612 60.6501 103.549 60.6501 103.487 60.6501H102.303V61.2734H104.048ZM107.165 60.8371L107.663 59.7151L108.162 60.8371H107.165ZM109.533 61.8344V61.7721C109.471 61.7721 109.409 61.7721 109.409 61.7097C109.159 61.0864 108.224 59.2787 108.224 59.2164C108.224 59.1541 108.224 59.1541 108.287 59.1541V59.0917H106.978V59.1541C107.04 59.1541 107.04 59.1541 107.04 59.2164C107.04 59.2787 106.479 60.5254 105.98 61.7097C105.98 61.7721 105.918 61.7721 105.856 61.7721V61.8344H106.791V61.7721C106.791 61.7721 106.728 61.7721 106.728 61.7097C106.728 61.6474 106.853 61.3981 106.915 61.2734H108.349C108.411 61.3981 108.536 61.6474 108.536 61.7097C108.536 61.7721 108.474 61.7721 108.474 61.7721V61.8344H109.533ZM111.278 60.8994L111.341 60.9617V61.0241C111.341 61.2111 112.089 61.3357 112.587 61.3357C112.774 61.3357 113.148 61.3357 113.148 61.0864C113.148 60.5877 111.091 61.0864 111.091 60.0267C111.091 59.6527 111.466 59.0917 112.463 59.0917C113.086 59.0917 113.585 59.2787 113.709 59.2787C113.772 59.2787 113.834 59.2164 113.834 59.2164H113.896L113.522 60.0267L113.46 59.9644V59.9021C113.46 59.8397 113.024 59.6527 112.587 59.6527C112.4 59.6527 111.902 59.6527 111.902 59.9021C111.902 60.3384 113.959 59.9021 113.959 60.9617C113.959 61.4604 113.522 61.8967 112.587 61.8967C111.964 61.8967 111.279 61.6474 111.216 61.6474C111.154 61.6474 111.091 61.7097 111.091 61.7097H111.029L111.278 60.8994ZM118.322 61.2734C118.384 61.2734 118.447 61.2111 118.509 61.0864H118.571V61.8967H118.509C118.447 61.7721 118.447 61.7721 118.322 61.7721H115.517V61.7097C115.579 61.7097 115.704 61.7097 115.704 61.5851V59.2164C115.704 59.1541 115.642 59.0917 115.517 59.0917V59.0294H118.384C118.447 59.0294 118.509 59.0294 118.509 58.9047H118.571V59.7151H118.509C118.509 59.5904 118.447 59.5904 118.384 59.5904H116.577V60.0891H117.761C117.823 60.0891 117.886 60.0891 117.886 59.9644H117.948V60.7747H117.886C117.886 60.6501 117.823 60.6501 117.761 60.6501H116.577V61.2734H118.322ZM32.5519 66.0107L32.4895 65.9484V65.8237C32.4895 65.699 31.9909 65.512 31.4922 65.512C30.9936 65.512 30.3079 65.7614 30.3079 66.3847C30.3079 67.008 30.9936 67.2574 31.4922 67.2574C31.7415 67.2574 32.5519 67.0704 32.5519 66.8834C32.5519 66.821 32.5519 66.821 32.4895 66.7587L32.5519 66.6964L33.1752 67.6937L33.1129 67.756C33.1129 67.6937 33.0505 67.6937 33.0505 67.6937C32.9259 67.6937 32.3649 68.0054 31.4299 68.0054C30.4326 68.0054 29.3729 67.4444 29.3729 66.3224C29.3729 65.2004 30.4326 64.6394 31.4299 64.6394C31.9285 64.6394 32.3025 64.7017 32.5519 64.7641C32.8012 64.8264 32.9259 64.8887 32.9882 64.8887C33.0505 64.8887 33.0505 64.8887 33.1129 64.8264H33.1752L32.5519 66.0107ZM35.8555 66.0107C36.3542 66.0107 36.7282 66.3224 36.7282 66.7587C36.7282 67.195 36.3542 67.5067 35.8555 67.5067C35.3569 67.5067 34.9829 67.195 34.9829 66.7587C34.9829 66.26 35.4192 66.0107 35.8555 66.0107ZM35.8555 65.3251C35.0452 65.3251 34.1725 65.7614 34.1725 66.7587C34.1725 67.756 35.0452 68.1924 35.8555 68.1924C36.6659 68.1924 37.5385 67.756 37.5385 66.7587C37.5385 65.7614 36.6659 65.3251 35.8555 65.3251ZM41.9018 67.943C41.9018 68.0054 41.9642 68.0677 42.0888 68.0677V68.13H40.9045V68.0677C40.9668 68.0677 41.0915 68.0677 41.0915 68.0054C41.0915 67.8807 40.2812 67.1327 39.5955 66.3224V67.943C39.5955 68.0054 39.6578 68.0677 39.7825 68.0677V68.13H38.7228V68.0677C38.7852 68.0677 38.9098 68.0677 38.9098 67.943V65.5744C38.9098 65.512 38.8475 65.4497 38.7228 65.4497V65.3874H40.2188V65.4497C40.1565 65.4497 40.0942 65.4497 40.0942 65.5744C40.0942 65.6367 40.7175 66.26 41.2162 66.821V65.5744C41.2162 65.512 41.1538 65.4497 41.0292 65.4497V65.3874H42.1512V65.4497C42.0265 65.4497 41.9642 65.4497 41.9642 65.5744V67.943H41.9018ZM45.9535 65.3251C46.0158 65.3251 46.0781 65.325 46.0781 65.2004H46.1405V66.1354H46.0781C46.0781 66.0107 46.0158 66.0107 45.9535 66.0107H45.0808V67.943C45.0808 68.0054 45.1432 68.0677 45.2055 68.0677V68.13H44.0835V68.0677C44.1458 68.0677 44.2082 68.0677 44.2082 67.943V66.0107H43.3355C43.2732 66.0107 43.2108 66.0107 43.2108 66.1354H43.1485V65.2004H43.2108C43.2108 65.325 43.2732 65.3251 43.3355 65.3251H45.9535ZM48.2598 65.886H49.1325C49.5065 65.886 49.6311 66.0107 49.6311 66.1977C49.6311 66.447 49.4441 66.5094 49.1948 66.5094H48.3221V65.886H48.2598ZM47.4495 67.943C47.4495 68.0054 47.3871 68.0677 47.3248 68.0677V68.13H48.3845V68.0677C48.3221 68.0677 48.1975 68.0677 48.1975 67.943V67.1327H48.8208C48.8831 67.2574 49.3195 67.943 49.3195 68.0054C49.3195 68.0677 49.1948 68.0677 49.1948 68.0677V68.13H50.4415V68.0677C50.3791 68.0677 50.2545 68.0054 50.1921 67.943L49.6311 67.1327C50.0051 67.008 50.3168 66.7587 50.3168 66.26C50.3168 65.6991 49.8805 65.3874 49.3195 65.3874H47.3248V65.4497C47.3871 65.4497 47.4495 65.4497 47.4495 65.5744V67.943ZM53.1218 66.0107C53.6204 66.0107 53.9944 66.3224 53.9944 66.7587C53.9944 67.195 53.6204 67.5067 53.1218 67.5067C52.6231 67.5067 52.2491 67.195 52.2491 66.7587C52.2491 66.26 52.6231 66.0107 53.1218 66.0107ZM53.1218 65.3251C52.3115 65.3251 51.4388 65.7614 51.4388 66.7587C51.4388 67.756 52.3115 68.1924 53.1218 68.1924C53.9321 68.1924 54.8048 67.756 54.8048 66.7587C54.8048 65.7614 53.8698 65.3251 53.1218 65.3251ZM56.0514 65.5744C56.0514 65.512 55.9891 65.4497 55.8644 65.4497V65.3874H57.0488V65.4497C56.9864 65.4497 56.8618 65.4497 56.8618 65.5744V67.5067H58.6071C58.6694 67.5067 58.7318 67.5067 58.7318 67.3197H58.7941V68.2547H58.7318C58.7318 68.13 58.6694 68.13 58.6071 68.13H55.8644V68.0677C55.9891 68.0677 56.0514 68.0677 56.0514 67.943V65.5744ZM63.3444 67.1327L63.8431 66.0107L64.3417 67.1327H63.3444ZM65.7131 68.13V68.0677C65.6507 68.0677 65.5884 68.0677 65.5884 68.0054C65.3391 67.382 64.4041 65.5744 64.4041 65.512C64.4041 65.4497 64.4041 65.4497 64.4664 65.4497V65.3874H63.1574V65.4497C63.2197 65.4497 63.2197 65.4497 63.2197 65.512C63.2197 65.5744 62.6587 66.821 62.1601 68.0054C62.1601 68.0677 62.0977 68.0677 62.0354 68.0677V68.13H62.9704V68.0677C62.9704 68.0677 62.9081 68.0677 62.9081 68.0054C62.9081 67.943 63.0327 67.6937 63.0951 67.569H64.5287C64.5911 67.6937 64.7157 67.943 64.7157 68.0054C64.7157 68.0677 64.6534 68.0677 64.6534 68.0677V68.13H65.7131ZM70.1387 67.943C70.1387 68.0054 70.201 68.0677 70.3257 68.0677V68.13H69.1414V68.0677C69.2037 68.0677 69.3284 68.0677 69.3284 68.0054C69.3284 67.8807 68.518 67.1327 67.8324 66.3224V67.943C67.8324 68.0054 67.8947 68.0677 68.0194 68.0677V68.13H66.8974V68.0677C66.9597 68.0677 67.0844 68.0677 67.0844 67.943V65.5744C67.0844 65.512 67.022 65.4497 66.8974 65.4497V65.3874H68.3934V65.4497C68.331 65.4497 68.2687 65.4497 68.2687 65.5744C68.2687 65.6367 68.892 66.26 69.3907 66.821V65.5744C69.3907 65.512 69.3284 65.4497 69.2037 65.4497V65.3874H70.3257V65.4497C70.201 65.4497 70.1387 65.4497 70.1387 65.5744V67.943ZM72.5697 65.9484H73.006C73.6293 65.9484 73.941 66.1354 73.941 66.6964C73.941 67.2574 73.6917 67.4444 73.006 67.4444H72.5697V65.9484ZM71.697 67.943C71.697 68.0054 71.6347 68.0677 71.51 68.0677V68.13H73.38C74.315 68.13 74.689 67.5067 74.689 66.7587C74.689 66.0107 74.315 65.3874 73.38 65.3874H71.51V65.4497C71.5724 65.4497 71.697 65.4497 71.697 65.5744V67.943ZM79.4887 65.512H80.4236C80.7353 65.512 80.9223 65.6367 80.9223 65.886C80.9223 66.1354 80.7353 66.26 80.4236 66.26H79.4887V65.512ZM79.4887 66.8834H80.6106C81.421 66.8834 81.795 66.3847 81.795 65.8237C81.795 65.2627 81.3586 64.7641 80.6106 64.7641H78.3667V64.8264C78.5537 64.8264 78.5537 64.8887 78.5537 64.9511V67.8807C78.5537 67.943 78.5537 68.0054 78.3667 68.0054V68.0677H79.6757V68.0054C79.4887 68.0054 79.4887 67.943 79.4887 67.8807V66.8834ZM83.9143 65.886H84.787C85.161 65.886 85.2856 66.0107 85.2856 66.1977C85.2856 66.447 85.0986 66.5094 84.8493 66.5094H83.9766V65.886H83.9143ZM83.104 67.943C83.104 68.0054 83.0416 68.0677 82.9793 68.0677V68.13H84.039V68.0677C83.9766 68.0677 83.852 68.0677 83.852 67.943V67.1327H84.4753C84.5376 67.2574 84.974 67.943 84.974 68.0054C84.974 68.0677 84.8493 68.0677 84.8493 68.0677V68.13H86.096V68.0677C86.0336 68.0677 85.909 68.0054 85.8466 67.943L85.2856 67.1327C85.6596 67.008 85.9713 66.7587 85.9713 66.26C85.9713 65.6991 85.535 65.3874 84.974 65.3874H82.9793V65.4497C83.0416 65.4497 83.104 65.4497 83.104 65.5744V67.943ZM90.0229 67.569C90.0853 67.569 90.1476 67.5067 90.2099 67.4444H90.2723V68.2547H90.2099C90.1476 68.13 90.1476 68.13 90.0229 68.13H87.2179V68.0677C87.2803 68.0677 87.4049 68.0677 87.4049 67.943V65.5744C87.4049 65.512 87.3426 65.4497 87.2179 65.4497V65.3874H90.0853C90.1476 65.3874 90.2099 65.3874 90.2099 65.2627H90.2723V66.073H90.2099C90.2099 65.9484 90.1476 65.9484 90.0853 65.9484H88.2776V66.447H89.4619C89.5243 66.447 89.5866 66.447 89.5866 66.3224H89.6489V67.1327H89.5866C89.5866 67.008 89.5243 67.008 89.4619 67.008H88.2776V67.6314H90.0229V67.569ZM91.2696 65.3251H92.4539V65.3874C92.3916 65.3874 92.2669 65.3874 92.2669 65.4497C92.2669 65.5121 92.7656 66.8834 92.8279 67.0704C93.0773 66.5094 93.4512 65.5121 93.4512 65.4497C93.4512 65.3874 93.3266 65.3874 93.3266 65.3874V65.3251H94.3862V65.3874C94.3239 65.3874 94.2616 65.3874 94.2616 65.4497C94.1992 65.699 93.2643 67.8184 93.2643 67.8807C93.2643 67.943 93.3266 68.0054 93.3889 68.0054V68.0677H92.0799V68.0054C92.1423 68.0054 92.2046 67.943 92.2046 67.8807C92.2046 67.8807 91.3943 65.4497 91.3319 65.3874H91.2073V65.3251H91.2696ZM98.2509 67.569C98.3132 67.569 98.3756 67.5067 98.4379 67.4444H98.5002V68.2547H98.4379C98.3756 68.13 98.3756 68.13 98.2509 68.13H95.4459V68.0677C95.5082 68.0677 95.6329 68.0677 95.6329 67.943V65.5744C95.6329 65.512 95.5706 65.4497 95.4459 65.4497V65.3874H98.3132C98.3756 65.3874 98.4379 65.3874 98.4379 65.2627H98.5002V66.073H98.4379C98.4379 65.9484 98.3756 65.9484 98.3132 65.9484H96.5056V66.447H97.6899C97.7522 66.447 97.8146 66.447 97.8146 66.3224H97.8769V67.1327H97.8146C97.8146 67.008 97.7522 67.008 97.6899 67.008H96.5056V67.6314H98.2509V67.569ZM103.051 67.943C103.051 68.0054 103.113 68.0677 103.238 68.0677V68.13H102.053V68.0677C102.116 68.0677 102.24 68.0677 102.24 68.0054C102.24 67.8807 101.43 67.1327 100.744 66.3224V67.943C100.744 68.0054 100.807 68.0677 100.931 68.0677V68.13H99.8716V68.0677C99.9339 68.0677 100.059 68.0677 100.059 67.943V65.5744C100.059 65.512 99.9962 65.4497 99.8716 65.4497V65.3874H101.368V65.4497C101.305 65.4497 101.243 65.4497 101.243 65.5744C101.243 65.6367 101.866 66.26 102.365 66.821V65.5744C102.365 65.512 102.303 65.4497 102.178 65.4497V65.3874H103.3V65.4497C103.175 65.4497 103.113 65.4497 103.113 65.5744V67.943H103.051ZM107.102 65.3251C107.165 65.3251 107.227 65.325 107.227 65.2004H107.289V66.1354H107.227C107.227 66.0107 107.165 66.0107 107.102 66.0107H106.23V67.943C106.23 68.0054 106.292 68.0677 106.354 68.0677V68.13H105.232V68.0677C105.295 68.0677 105.357 68.0677 105.357 67.943V66.0107H104.484C104.422 66.0107 104.36 66.0107 104.36 66.1354H104.297V65.2004H104.36C104.36 65.325 104.422 65.3251 104.484 65.3251H107.102ZM109.72 65.3251V65.3874C109.596 65.3874 109.533 65.3874 109.533 65.512V67.8807C109.533 67.943 109.596 68.0054 109.72 68.0054V68.0677H108.474V68.0054C108.598 68.0054 108.661 68.0054 108.661 67.8807V65.512C108.661 65.4497 108.598 65.3874 108.474 65.3874V65.3251H109.72ZM112.525 66.0107C113.024 66.0107 113.398 66.3224 113.398 66.7587C113.398 67.195 113.024 67.5067 112.525 67.5067C112.026 67.5067 111.653 67.195 111.653 66.7587C111.653 66.26 112.026 66.0107 112.525 66.0107ZM112.525 65.3251C111.715 65.3251 110.842 65.7614 110.842 66.7587C110.842 67.756 111.715 68.1924 112.525 68.1924C113.335 68.1924 114.208 67.756 114.208 66.7587C114.208 65.7614 113.273 65.3251 112.525 65.3251ZM118.509 67.943C118.509 68.0054 118.571 68.0677 118.696 68.0677V68.13H117.512V68.0677C117.574 68.0677 117.699 68.0677 117.699 68.0054C117.699 67.8807 116.888 67.1327 116.203 66.3224V67.943C116.203 68.0054 116.265 68.0677 116.39 68.0677V68.13H115.33V68.0677C115.392 68.0677 115.517 68.0677 115.517 67.943V65.5744C115.517 65.512 115.455 65.4497 115.33 65.4497V65.3874H116.826V65.4497C116.764 65.4497 116.701 65.4497 116.701 65.5744C116.701 65.6367 117.325 66.26 117.823 66.821V65.5744C117.823 65.512 117.761 65.4497 117.636 65.4497V65.3874H118.758V65.4497C118.634 65.4497 118.571 65.4497 118.571 65.5744V67.943H118.509Z" fill="#0033A1"/>
</g>
</g>
<defs>
<clipPath id="clip0_2_1450">
<rect width="150" height="70" fill="white" transform="translate(0.25)"/>
</clipPath>
<clipPath id="clip1_2_1450">
<rect width="98.2594" height="70" fill="white" transform="translate(26.1203)"/>
</clipPath>
</defs>
</svg>
