<svg width="151" height="70" viewBox="0 0 151 70" fill="none" xmlns="http://www.w3.org/2000/svg">
<g clip-path="url(#clip0_2_1459)">
<g clip-path="url(#clip1_2_1459)">
<path d="M62.159 45.2068H65.2782V26.1942H62.159V24.2844H78.0523V29.2285H76.1426V26.1942H68.9916V34.6819H74.5511V31.9022H76.4608V39.8595H74.5511V36.5917H68.9916V45.2068H72.1533V47.1165H62.1802V45.2068H62.159Z" fill="#005288"/>
<path d="M80.0257 45.2068H83.1025V26.1942H80.0257V24.2844H95.9827V29.2285H94.073V26.1942H86.7947V34.4273H92.3966V31.6476H94.3064V39.6048H92.3966V36.337H86.7947V45.2068H94.3276V42.0026H96.2373V47.0953H80.0045V45.2068H80.0257Z" fill="#005288"/>
<path d="M97.9561 45.2068H101.075V26.1942H97.9561V24.2844H105.277V26.1942L112.597 41.4721L119.791 26.1942V24.2844H127.26V26.1942H124.183V45.2068H127.26V47.1165H117.308V45.2068H120.47V29.5468H120.385L112.173 47.0953H111.346L103.261 29.8863H103.197V45.2068H106.274V47.1165H97.9773V45.2068H97.9561Z" fill="#005288"/>
<path d="M142.029 37.207H135.939L138.867 28.8253H138.952L142.029 37.207ZM129.234 47.0952H135.175V45.1855H133.117L135.175 39.0955H142.793L144.957 45.1855H142.793V47.0952H150.75V45.1855H148.777L140.734 23.7114H138.782L131.207 45.1855H129.234V47.0952Z" fill="#005288"/>
<path d="M27.2743 8.47583C12.6329 8.47583 0.75 20.3587 0.75 35.0001C0.75 49.6415 12.6329 61.5243 27.2743 61.5243C41.9156 61.5243 53.7985 49.6415 53.7985 35.0001C53.7985 20.3587 41.9156 8.47583 27.2743 8.47583Z" fill="white"/>
<path d="M43.3798 25.4727C43.0827 25.5788 42.7857 25.6637 42.4886 25.7274C44.1437 28.4222 45.0986 31.6051 45.0986 35.0002C45.0986 44.846 37.1201 52.8245 27.2743 52.8245C17.4285 52.8245 9.44996 44.846 9.44996 35.0002C9.44996 31.4566 10.4897 28.1464 12.2721 25.3666C11.9963 25.2818 11.7204 25.1757 11.4234 25.0483C9.5985 27.9342 8.55875 31.3505 8.55875 35.0002C8.55875 45.3341 16.9404 53.7158 27.2743 53.7158C37.6081 53.7158 45.9898 45.3341 45.9898 35.0002C45.9898 31.5203 45.0349 28.2525 43.3798 25.4727Z" fill="#C41230"/>
<path d="M16.9192 20.4861C19.8263 18.4066 23.4123 17.1759 27.2743 17.1759C31.603 17.1759 35.5498 18.7037 38.6479 21.2712C38.9874 21.1652 39.3269 21.0803 39.6876 20.9954C36.3774 18.0671 32.0486 16.3059 27.2955 16.3059C23.0304 16.3059 19.1048 17.7276 15.9431 20.1254C16.0916 20.1891 16.2402 20.2315 16.3887 20.2952C16.5585 20.3588 16.7494 20.4225 16.9192 20.4861Z" fill="#C41230"/>
<path d="M27.2743 8.47583C12.6329 8.47583 0.75 20.3587 0.75 35.0001C0.75 49.6415 12.6329 61.5243 27.2743 61.5243C41.9156 61.5243 53.7985 49.6415 53.7985 35.0001C53.7985 20.3587 41.9156 8.47583 27.2743 8.47583ZM27.2743 59.8905C13.5241 59.8905 2.38389 48.7503 2.38389 35.0001C2.38389 21.2499 13.5241 10.1097 27.2743 10.1097C41.0244 10.1097 52.1646 21.2499 52.1646 35.0001C52.1646 48.7503 41.0244 59.8905 27.2743 59.8905Z" fill="#C0C2C4"/>
<path d="M20.866 29.674C20.484 29.4831 20.1658 29.2496 19.805 28.9314C18.6592 27.8916 18.4045 26.8094 18.7441 25.5575C18.935 24.8148 19.2533 24.4328 19.1472 23.6477C19.0836 23.2021 18.7653 22.8414 18.447 22.5443C17.6831 21.8229 16.7919 21.356 15.4551 20.9104C14.6275 20.6346 12.2297 19.8919 11.1899 18.937C10.9565 19.6373 11.4658 20.5709 12.0812 20.6982C11.5507 20.7619 11.0839 21.0377 10.8717 21.3348C11.2748 21.8016 12.0812 22.2897 12.7602 22.3109C12.4419 22.5231 12.0812 22.9475 11.9538 23.2021C12.5268 23.5204 13.4604 23.775 14.1607 23.7114C13.8636 23.9448 13.609 24.2631 13.4392 24.5389C13.9273 24.7511 14.8609 25.0694 15.7521 25.1331C15.4338 25.3028 14.9458 25.8545 14.7124 26.194C15.2216 26.4275 16.3038 26.5548 16.9616 26.6184C16.4736 26.8731 15.9855 27.3823 15.7097 27.8279C16.1977 28.0614 17.1102 28.316 17.8741 28.2948C17.5133 28.6555 17.2587 29.0799 17.1102 29.5043C17.6831 29.6104 18.2772 29.6316 18.9563 29.5255C18.5319 30.056 18.3621 30.7562 18.2984 31.2655C18.8714 31.2443 19.6141 31.117 20.1445 30.7987C20.0384 31.223 20.0597 31.8172 20.2506 32.2204C20.4628 32.1779 20.7175 32.0718 21.0145 31.9233C20.9297 31.1806 20.9084 30.3531 20.866 29.674Z" fill="#005288"/>
<path d="M43.7405 20.2314C42.6795 21.1863 41.0032 21.441 39.2208 22.0351C37.884 22.4807 37.0564 22.7353 35.8681 23.6902C35.5286 23.9661 35.2103 24.3692 35.2315 25.0483C35.274 25.8121 35.4013 26.1517 35.4225 27.2126C35.4437 27.9765 35.1679 28.5919 34.8496 28.9526C34.5101 29.3346 34.0645 29.6741 33.6825 29.8651C33.6613 30.5229 33.6401 31.1594 33.5976 31.9233C33.8735 32.0719 34.2342 32.2204 34.4464 32.2628C34.6374 31.8597 34.6586 31.2655 34.5313 30.8411C35.0618 31.1594 35.8045 31.2868 36.3562 31.308C36.2925 30.7987 36.1227 30.0985 35.6984 29.568C36.3986 29.6529 36.9927 29.6529 37.5444 29.5468C37.3959 29.1224 37.1625 28.698 36.8018 28.3373C37.5444 28.3585 38.4781 28.1038 38.9662 27.8704C38.6903 27.4036 38.181 26.9156 37.7142 26.6609C38.3932 26.5973 39.4966 26.47 40.0059 26.2365C39.7725 25.897 39.2632 25.3241 38.9449 25.1756C39.8361 25.1119 40.7698 24.7936 41.2578 24.5814C41.0881 24.3056 40.8335 24.0085 40.5364 23.7539C41.3639 23.6902 42.1703 23.5417 42.7432 23.2446C42.6159 22.99 42.2339 22.5656 41.9369 22.3534C43.6981 21.8229 43.7193 20.9317 43.7405 20.2314Z" fill="#005288"/>
<path d="M36.2076 22.1198C33.6825 20.3586 30.6057 19.3401 27.2743 19.3401C24.2399 19.3401 21.4177 20.1889 19.0199 21.6742C19.6353 22.1623 20.0172 22.6715 20.1021 23.202C20.187 23.6688 20.2294 24.2206 19.9748 25.0481C19.6989 25.9181 19.5292 26.8093 20.1658 27.7218C20.8023 28.613 21.6299 29.0161 22.3089 29.1435C23.2001 28.9949 24.1974 28.8464 25.1948 28.7827C25.3221 28.3583 25.704 27.9976 26.086 27.7005C26.6377 27.2761 26.5104 26.8942 26.383 26.5971C26.277 26.3637 26.086 26.1727 25.7889 26.0242C25.5343 25.8969 24.6218 25.7908 24.6431 26.3849C24.4945 26.1727 24.3672 25.8757 24.4521 25.5149C24.5794 25.0057 25.407 24.8784 25.6191 24.8784C25.4494 24.751 25.5555 24.5176 25.9162 24.4115C26.3618 24.2842 26.7862 24.263 27.1894 24.2842C28.0382 24.3054 28.1655 24.5176 28.5899 24.8996C29.0991 25.3664 29.7782 25.5149 30.054 25.2391C29.863 25.6847 29.2477 25.9181 28.8657 25.8332C29.0567 26.4486 29.1204 26.9579 29.184 27.5944C29.2052 27.8915 29.2689 28.3796 29.3538 28.7615C30.4784 28.8464 31.603 29.0161 32.6003 29.2071C33.0035 29.0798 33.4279 28.8464 33.8098 28.4008C34.1706 27.9764 34.5101 27.4671 34.3615 26.1303C34.3191 25.7483 34.1281 24.7935 34.1706 24.3479C34.2554 23.3293 35.0193 22.6715 36.2076 22.1198Z" fill="#005288"/>
<path d="M25.7889 24.9208C25.9374 25.0481 26.0435 25.0481 26.086 25.0481C26.086 25.0693 26.1496 25.1118 26.1496 25.133C26.1921 25.1542 26.1921 25.1967 26.2133 25.2179C26.277 25.1967 26.4679 25.1118 26.6377 25.0481C26.8074 24.9845 27.0409 24.9208 27.0409 24.9208C26.3194 24.7511 26.2133 24.9845 25.7889 24.9208Z" fill="#005288"/>
<path d="M26.8286 37.313L26.5104 37.1645L26.2982 36.634L25.8313 36.443L25.3221 35.9762L25.025 36.3157L24.5582 36.4218L24.3248 36.8038L23.964 37.1857L23.4548 37.4403L23.1153 38.0345L22.9243 38.2891L22.5848 38.5438L22.3938 38.3528L22.2028 38.5438L21.9694 39.0318C21.8421 38.6923 21.7572 38.4164 21.7148 37.8647C21.6511 36.8462 21.5662 35.5518 21.5026 34.2362C23.2001 33.8755 25.3433 33.6208 27.0833 33.6208V37.6101C26.9984 37.5464 26.9135 37.504 26.8286 37.313Z" fill="#0078AE"/>
<path d="M27.0833 39.2439H22.0543C22.1179 39.3924 22.224 39.541 22.3089 39.6895C22.6696 40.1988 23.1789 40.5807 23.8367 40.7717C24.7279 41.0475 25.3008 41.2173 25.704 41.3446L26.1921 41.4932C26.5952 41.6205 26.8711 41.7902 27.0833 42.0024V39.2439Z" fill="#5E9732"/>
<path d="M32.3881 37.2917C32.5154 37.1856 32.6852 37.0583 32.8974 36.9734C32.9186 36.5066 32.9611 35.9973 32.9823 35.488C32.9186 35.5305 32.8762 35.5729 32.7913 35.6366C32.5579 35.8275 32.2608 36.0822 31.7303 36.0822C31.2423 36.0822 30.924 35.8912 30.6481 35.7214C30.4359 35.5941 30.2662 35.488 30.0328 35.488C29.7569 35.488 29.5235 35.6366 29.2689 35.7851C28.993 35.9549 28.696 36.1246 28.3352 36.1246C27.9533 36.1246 27.6774 36.0185 27.4652 35.8912V37.3129C27.5077 37.3341 27.5713 37.3766 27.6138 37.3978C27.8472 37.5463 28.0381 37.6524 28.3352 37.6524C28.5262 37.6524 28.7172 37.5463 28.9294 37.3978C29.2264 37.228 29.5659 37.0158 30.0116 37.0158C30.4359 37.0158 30.733 37.1856 30.9664 37.3341C31.1998 37.4827 31.3908 37.5888 31.6879 37.5888C32.0274 37.5888 32.1972 37.4614 32.3881 37.2917Z" fill="#005288"/>
<path d="M28.3352 40.5172C27.9533 40.5172 27.6774 40.4111 27.4652 40.2838V42.0026C27.6562 41.8116 27.9533 41.6206 28.3564 41.4933L28.8445 41.3448C29.2477 41.2175 29.8206 41.0265 30.7118 40.7718C30.9664 40.687 31.1998 40.5809 31.4333 40.4536C31.115 40.3899 30.8815 40.2414 30.6694 40.1353C30.4572 40.008 30.2874 39.9019 30.054 39.9019C29.7781 39.9019 29.5447 40.0504 29.2901 40.1989C29.0142 40.3262 28.7172 40.5172 28.3352 40.5172Z" fill="#005288"/>
<path d="M32.3881 35.1274C32.5579 35.0001 32.7489 34.8303 33.0247 34.7667C33.0247 34.5757 33.0459 34.4059 33.0459 34.215C31.3484 33.8542 29.2052 33.6208 27.4652 33.5996V35.1062C27.5077 35.1274 27.5713 35.1698 27.6138 35.1911C27.8472 35.3396 28.0381 35.4457 28.3352 35.4457C28.5262 35.4457 28.7172 35.3396 28.9294 35.1911C29.2264 35.0213 29.5659 34.8091 30.0116 34.8091C30.4359 34.8091 30.733 34.9789 30.9664 35.1274C31.1998 35.2759 31.3908 35.382 31.6879 35.382C32.0274 35.4245 32.1972 35.2972 32.3881 35.1274Z" fill="#0078AE"/>
<path d="M27.4652 38.0345V39.4986C27.5077 39.5199 27.5713 39.5623 27.6138 39.5835C27.8472 39.732 28.0381 39.8381 28.3352 39.8381C28.5262 39.8381 28.7172 39.732 28.9294 39.5835C29.2264 39.4138 29.5659 39.2016 30.0116 39.2016C30.4359 39.2016 30.733 39.3713 30.9664 39.5199C31.1998 39.6684 31.3908 39.7745 31.6879 39.7745C31.9213 39.7745 32.0698 39.6896 32.2396 39.5623C32.5579 39.0742 32.7489 38.5013 32.7913 37.8011C32.7913 37.7799 32.7913 37.7374 32.7913 37.7162C32.7701 37.7374 32.7701 37.7374 32.7489 37.7586C32.5154 37.9496 32.2184 38.2043 31.6879 38.2043C31.1998 38.2043 30.8815 38.0133 30.6057 37.8435C30.3935 37.7162 30.2237 37.6101 29.9903 37.6101C29.7145 37.6101 29.4811 37.7586 29.2264 37.9072C28.9506 38.0769 28.6535 38.2467 28.2928 38.2467C27.9745 38.2891 27.6986 38.1618 27.4652 38.0345Z" fill="#0078AE"/>
<path d="M21.4601 33.8329C21.3753 32.3688 21.3116 30.8834 21.2692 29.7164C23.0516 29.3132 25.407 29.0374 27.2743 29.0374C29.1203 29.0374 31.4969 29.3132 33.2794 29.7164C33.2369 30.8834 33.1733 32.3688 33.0884 33.8329C31.412 33.4722 29.184 33.2176 27.2743 33.2176C25.3645 33.2176 23.1365 33.4934 21.4601 33.8329Z" fill="#005288"/>
<path d="M22.6272 30.6926L22.7121 30.3743L22.415 30.247L22.7333 30.2257L22.7545 29.8862L22.9031 30.1833L23.2001 30.1196L22.9667 30.3318L23.1365 30.6289L22.8606 30.4592L22.6272 30.6926Z" fill="white"/>
<path d="M24.6006 30.4377L24.3248 30.268L24.0914 30.5014L24.1762 30.1831L23.9004 30.0346L24.2187 30.0134L24.2611 29.6951L24.3672 29.9921L24.6855 29.9497L24.4521 30.1407L24.6006 30.4377Z" fill="white"/>
<path d="M26.0647 30.3318L25.8101 30.1408L25.5555 30.353L25.6616 30.0559L25.3857 29.8862H25.704L25.7677 29.5679L25.8738 29.8649L26.1921 29.8437L25.9374 30.0347L26.0647 30.3318Z" fill="white"/>
<path d="M27.5289 30.2893L27.2743 30.0983L27.0408 30.2893L27.1469 29.9922L26.8711 29.8225H27.1894L27.2743 29.5254L27.3591 29.8225H27.6774L27.4228 29.9922L27.5289 30.2893Z" fill="white"/>
<path d="M31.7091 30.4592L31.4333 30.6289L31.5818 30.3318L31.3484 30.1196L31.6667 30.1833L31.794 29.8862L31.8364 30.2257L32.1547 30.247L31.8577 30.3743L31.9213 30.6926L31.7091 30.4592Z" fill="white"/>
<path d="M30.1177 30.1619L29.863 29.9497L30.1813 29.9921L30.2874 29.6951L30.3511 30.0134L30.6694 30.0346L30.3723 30.1831L30.4572 30.5014L30.2238 30.268L29.9691 30.4377L30.1177 30.1619Z" fill="white"/>
<path d="M28.6323 30.0347L28.3777 29.8437L28.696 29.8649L28.8021 29.5679L28.8657 29.8862H29.184L28.9082 30.0559L28.993 30.353L28.7596 30.1408L28.505 30.3318L28.6323 30.0347Z" fill="white"/>
<path d="M22.8606 33.069L22.9243 32.7507L22.6272 32.6234L22.9455 32.6022L22.9879 32.2627L23.1153 32.5598L23.4336 32.4961L23.1789 32.7083L23.3487 33.0054L23.0728 32.8356L22.8606 33.069Z" fill="white"/>
<path d="M24.7491 32.8357L24.4945 32.6659L24.2611 32.8781L24.346 32.5811L24.0489 32.4325L24.3672 32.4113L24.4309 32.093L24.5369 32.3901L24.8552 32.3476L24.6006 32.5386L24.7491 32.8357Z" fill="white"/>
<path d="M26.1708 32.7295L25.895 32.5385L25.6616 32.7507L25.7677 32.4536L25.4918 32.2839H25.8101L25.8738 31.9656L25.9799 32.2839L26.2982 32.2414L26.0435 32.4324L26.1708 32.7295Z" fill="white"/>
<path d="M27.5713 32.7082L27.3379 32.496L27.0833 32.7082L27.1894 32.4111L26.9348 32.2202L27.253 32.2414L27.3379 31.9231L27.4016 32.2414L27.7411 32.2202L27.4652 32.4111L27.5713 32.7082Z" fill="white"/>
<path d="M31.5818 32.8569L31.3059 33.0266L31.4757 32.7295L31.2423 32.5174L31.5394 32.581L31.6879 32.2839L31.7091 32.6022L32.0274 32.6447L31.7303 32.772L31.8152 33.0903L31.5818 32.8569Z" fill="white"/>
<path d="M30.054 32.5598L29.7994 32.3476L30.1177 32.4113L30.2238 32.093L30.2874 32.4113L30.6057 32.4325L30.3086 32.5811L30.3935 32.8994L30.1813 32.6659L29.9055 32.8357L30.054 32.5598Z" fill="white"/>
<path d="M28.6323 32.4324L28.3564 32.2414L28.6747 32.2839L28.7808 31.9868L28.8445 32.2839L29.1628 32.3051L28.8869 32.4536L28.993 32.7719L28.7596 32.5385L28.4838 32.7295L28.6323 32.4324Z" fill="white"/>
<path d="M23.5609 31.6686L23.6245 31.3504L23.3275 31.223L23.667 31.1806L23.7094 30.8623L23.8155 31.1594L24.1338 31.1169L23.9004 31.3291L24.0489 31.605L23.7731 31.4352L23.5609 31.6686Z" fill="white"/>
<path d="M22.1392 31.902L22.2028 31.5838L21.927 31.4564L22.2453 31.414L22.2665 31.0957L22.3938 31.3928L22.7121 31.3079L22.4787 31.5413L22.6484 31.8172L22.3514 31.6474L22.1392 31.902Z" fill="white"/>
<path d="M25.4494 31.4775L25.1948 31.2865L24.9613 31.52L25.0462 31.2017L24.7704 31.0531L25.0887 31.0319L25.1311 30.7136L25.2584 31.0319L25.5555 30.9895L25.3221 31.1804L25.4494 31.4775Z" fill="white"/>
<path d="M26.8499 31.414L26.5952 31.2018L26.3618 31.414L26.4679 31.117L26.1921 30.9472H26.5104L26.574 30.6289L26.6801 30.9472L26.9984 30.926L26.7225 31.117L26.8499 31.414Z" fill="white"/>
<path d="M28.2716 31.4353L28.0169 31.2019L27.7623 31.414L27.8896 31.117L27.635 30.926L27.9533 30.9472L28.0382 30.6501L28.123 30.9472H28.4413L28.1655 31.117L28.2716 31.4353Z" fill="white"/>
<path d="M32.2608 31.6686L31.985 31.8172L32.1547 31.5413L31.9213 31.3291L32.2184 31.3928L32.3669 31.0957L32.3881 31.414L32.7064 31.4564L32.4094 31.5838L32.473 31.902L32.2608 31.6686Z" fill="white"/>
<path d="M30.733 31.3292L30.4784 31.117L30.7967 31.1806L30.924 30.8835L30.9664 31.2018L31.2847 31.2231L30.9877 31.3716L31.0725 31.6899L30.8603 31.4565L30.5845 31.6262L30.733 31.3292Z" fill="white"/>
<path d="M29.3113 31.1805L29.0567 30.9895L29.375 31.0319L29.4811 30.7349L29.5447 31.0532H29.863L29.5872 31.2017L29.6721 31.52L29.4386 31.2866L29.1628 31.4775L29.3113 31.1805Z" fill="white"/>
<path d="M46.9234 25.4726C47.6449 25.1543 48.4937 25.3028 48.7059 25.7909C48.9181 26.2789 48.4512 27.0004 47.7298 27.3187C46.9871 27.637 46.1595 27.4884 45.9473 27.0004C45.7352 26.5123 46.202 25.7909 46.9234 25.4726ZM48.0269 27.9765C48.9605 27.5733 49.3637 26.5336 48.9817 25.6423C48.5998 24.7511 47.56 24.3692 46.6264 24.7724C45.6927 25.1755 45.2683 26.2153 45.6715 27.1065C46.0534 27.9977 47.1144 28.3797 48.0269 27.9765Z" fill="#005288"/>
<path d="M46.7537 30.3955L46.393 28.995L46.6052 28.9313L46.7113 29.3133L49.6607 28.5706L49.5546 28.1887L49.7668 28.125L50.2973 30.2257L50.4459 30.1833L50.5095 30.4591L49.7032 30.6713L49.6395 30.3955L50.0003 30.3106L49.7244 29.2496L48.5149 29.5467L48.7271 30.3743L49.0666 30.2894L49.1515 30.5652L48.133 30.8199L48.0481 30.544L48.4088 30.4591L48.1966 29.6316L46.8386 29.9711L46.9234 30.3106L46.7537 30.3955Z" fill="#005288"/>
<path d="M5.48193 26.6609L5.35461 27.0853L7.26436 27.6582C7.83729 27.828 8.13436 28.125 8.21923 28.6343C8.26167 28.8889 8.24045 29.1436 8.15558 29.4194C7.90094 30.247 7.3068 30.6289 6.60656 30.4379L4.5695 29.8226L4.4634 30.2045L4.25121 30.1409L4.67559 28.7192L4.88779 28.7828L4.78169 29.1648L6.67022 29.7377C7.17948 29.8862 7.43412 29.865 7.64631 29.6528C7.75241 29.5467 7.81607 29.4194 7.8585 29.2709C8.04948 28.6555 7.79485 28.2099 7.15826 28.0189L5.26974 27.4672L5.14242 27.8916L4.93023 27.828L5.29096 26.6609H5.48193Z" fill="#005288"/>
<path d="M8.83459 27.4673C8.74971 27.637 8.55874 27.7219 8.36777 27.6582C8.19801 27.5734 8.11313 27.3824 8.17679 27.1914C8.26167 27.0004 8.45264 26.9156 8.64362 27.0004C8.81337 27.0853 8.89825 27.2975 8.83459 27.4673Z" fill="#005288"/>
<path d="M9.4924 25.9607L9.34386 26.2154L8.5163 25.7485L8.66484 25.4939L9.00435 25.6849C9.2802 25.5788 9.42874 25.4515 9.55605 25.218C9.72581 24.9422 9.66215 24.6239 9.42874 24.4966C9.21654 24.3905 9.00435 24.4329 8.47386 24.7088C7.94338 25.0058 7.8585 25.0271 7.64631 25.0695C7.45533 25.1119 7.22192 25.0695 7.03094 24.9422C6.52168 24.6663 6.39436 24.0934 6.71265 23.5417C6.81875 23.372 6.92485 23.2446 7.0946 23.0961L6.96729 23.0112L7.11582 22.7566L7.90094 23.2022L7.7524 23.4781L7.43411 23.3083C7.2007 23.4356 7.0946 23.5205 6.98851 23.6902C6.86119 23.9237 6.92485 24.1995 7.13704 24.3268C7.32802 24.4329 7.49777 24.3905 8.02826 24.1146C8.28289 23.9873 8.45264 23.9024 8.5163 23.86C8.64362 23.7963 8.81337 23.7539 8.98313 23.7539C9.1741 23.7539 9.34386 23.7963 9.53484 23.8812C10.0653 24.1783 10.2139 24.7724 9.91678 25.3029C9.76825 25.5788 9.59849 25.7273 9.36508 25.8758L9.4924 25.9607Z" fill="#005288"/>
<path d="M10.8717 23.5629C10.8717 23.7539 10.7231 23.9024 10.5322 23.9024C10.3412 23.9024 10.1926 23.7539 10.1926 23.5629C10.1926 23.3719 10.3412 23.2234 10.5322 23.2234C10.7231 23.2234 10.8717 23.3719 10.8717 23.5629Z" fill="#005288"/>
<path d="M19.0411 16.7727L16.8131 17.9186L16.707 17.7276L17.0677 17.5366L15.6673 14.8418L15.3065 15.0327L15.2004 14.8418L17.1314 13.8445L17.089 13.6959L17.3436 13.5686L17.7255 14.3113L17.4709 14.4386L17.3011 14.0991L16.3251 14.6084L16.898 15.7118L17.6407 15.3298L17.4709 15.0115L17.7255 14.8842L18.1924 15.8179L17.9377 15.9452L17.768 15.6057L17.0253 15.9876L17.6194 17.1547L18.638 16.6242L18.4682 16.2847L18.7228 16.1574L19.0411 16.7727Z" fill="#005288"/>
<path d="M21.2055 15.9877L19.7414 16.4757L19.6777 16.2635L20.0597 16.1362L19.1048 13.2504L18.7228 13.3777L18.6592 13.1655L20.187 12.6562C20.8023 12.444 21.3328 12.6987 21.5238 13.2716C21.7148 13.8233 21.3753 14.4386 20.7811 14.6296C20.6962 14.6508 20.6326 14.6721 20.5053 14.6933L20.4204 14.4386C20.484 14.4386 20.5265 14.4174 20.5689 14.4174C20.9084 14.3113 21.0145 13.993 20.866 13.5474C20.7175 13.0806 20.4416 12.8896 20.0809 13.0169L19.7838 13.123L20.7175 15.9452L21.1418 15.7967L21.2055 15.9877Z" fill="#005288"/>
<path d="M22.9243 14.0778L23.2213 12.6773L23.9428 13.8868L22.9243 14.0778ZM25.4918 14.8205L25.2796 14.8629L23.4123 11.7649L23.094 11.8286L22.3301 15.3934L22.0118 15.4571L22.0543 15.6693L23.1365 15.4783L23.094 15.2661L22.6696 15.3298L22.8606 14.4173L24.1338 14.2051L24.6006 14.9902L24.2399 15.0539L24.2823 15.2661L25.5555 15.0539L25.4918 14.8205Z" fill="#005288"/>
<path d="M26.9984 11.8498H27.3379C27.7199 11.8498 27.9321 12.1045 27.9321 12.5076C27.9321 12.932 27.6774 13.2079 27.3167 13.2079H26.9984V11.8498ZM29.1416 14.8205H28.9294C28.8233 14.8205 28.7596 14.7781 28.6323 14.5871L27.8896 13.4413C28.3777 13.2927 28.6323 12.9745 28.6323 12.5076C28.6323 12.2318 28.5474 11.9984 28.3777 11.8286C28.1867 11.6376 27.9321 11.574 27.4865 11.574H25.9374V11.7862H26.3406V14.8205H25.9374V15.0327H27.4228V14.8205H27.0196V13.4837H27.1682L27.9533 14.7357C28.123 15.0115 28.1867 15.054 28.505 15.054H29.184L29.1416 14.8205Z" fill="#005288"/>
<path d="M31.5394 15.4783L29.863 15.2024L29.9055 14.9902L30.4147 15.0751L30.9028 12.1681L29.9903 12.0195L29.9267 12.4439L29.6508 12.4015L29.7994 11.5103L30.0964 11.5527L30.0752 11.7012L32.5367 12.1256L32.5579 11.9771L32.8337 12.0195L32.6852 12.9107L32.4094 12.8683L32.473 12.4439L31.5818 12.2954L31.0938 15.2024L31.603 15.2873L31.5394 15.4783Z" fill="#005288"/>
<path d="M36.4835 17.1335L35.0193 16.5605L35.1042 16.3483L35.5286 16.5181L36.3562 14.3962L34.3403 16.3696L34.0432 13.5686L33.2369 15.6481L33.6613 15.8179L33.5764 16.03L32.4306 15.5844L32.5154 15.3722L32.9186 15.542L34.022 12.6986L33.5976 12.5288L33.6825 12.3167L34.5525 12.6562L34.8284 15.3935L36.7381 13.5049L37.7142 13.8869L37.6293 14.0991L37.2262 13.9293L36.1227 16.7727L36.5259 16.9425L36.4835 17.1335Z" fill="#005288"/>
<path d="M39.051 18.831L36.9291 17.4729L37.0564 17.282L37.3959 17.4942L39.0298 14.9266L38.6903 14.7144L38.8176 14.5234L40.6425 15.6905L40.7274 15.5632L40.9608 15.7117L40.5152 16.412L40.2818 16.2634L40.494 15.9451L39.5603 15.351L38.8813 16.412L39.6027 16.8576L39.7937 16.5605L40.0271 16.709L39.4754 17.579L39.242 17.4305L39.433 17.1122L38.7115 16.6666L38.0113 17.77L38.9874 18.3854L39.1996 18.0459L39.433 18.1944L39.051 18.831Z" fill="#005288"/>
<path d="M15.6036 16.6665C15.0307 15.8814 13.9485 15.7328 13.1421 16.327L11.8053 17.3031L11.9326 17.4728L12.2509 17.2394L14.0546 19.6796C14.1394 19.7221 14.2243 19.7433 14.3092 19.7857L15.2004 19.1279C15.6248 18.8309 15.837 18.4913 15.9219 18.0245C16.0068 17.5365 15.9007 17.0484 15.6036 16.6665ZM14.9246 18.9582L14.5851 19.2128L12.8663 16.8787L13.227 16.6028C13.7151 16.2421 14.5426 16.4543 15.0094 17.0909C15.4975 17.7699 15.4763 18.5762 14.9246 18.9582Z" fill="#005288"/>
<path d="M43.5496 18.0883L43.401 18.2581L43.7193 18.5339L42.2339 20.1678L42.6159 17.2183L41.8308 16.5181L41.6822 16.6878L41.9581 16.9425L41.8944 17.2607L40.0271 19.319L39.7088 19.022L39.5603 19.1917L40.4515 19.998L40.6001 19.8283L40.2818 19.5524L41.8308 17.8549L41.4913 20.5285C41.8096 20.4437 42.1491 20.3588 42.531 20.2527C42.5522 20.2527 42.5947 20.2315 42.6159 20.2315L43.9527 18.7673L44.271 19.0644L44.4195 18.8946L43.5496 18.0883Z" fill="#005288"/>
<path d="M47.1144 21.9502L46.9871 22.0351L45.4593 20.0405L45.5866 19.9556L45.4168 19.7222L44.6954 20.2739L44.8651 20.5073L45.2047 20.2314L45.7564 20.9529L43.401 22.7565L43.2737 22.608C43.21 22.6504 43.1464 22.6717 43.0615 22.7141L43.9315 23.86L44.1012 23.7326L43.783 23.3295L46.1383 21.5258L46.69 22.2473L46.3505 22.5231L46.5203 22.7565L47.2417 22.2048L47.1144 21.9502Z" fill="#005288"/>
<path d="M31.6667 58.2352L31.3908 58.2989L31.1786 57.3652L31.4545 57.3016L31.5394 57.6835C31.8152 57.8108 32.0062 57.8533 32.2608 57.7896C32.5791 57.7259 32.7701 57.4713 32.7064 57.2167C32.664 56.9833 32.473 56.8559 31.9213 56.6437C31.3484 56.4316 31.2635 56.3891 31.0938 56.2618C30.924 56.1345 30.8179 55.9435 30.7755 55.7313C30.6482 55.1584 30.9877 54.6916 31.6242 54.5642C31.8152 54.5218 31.985 54.5218 32.1972 54.5642L32.1547 54.4157L32.4306 54.3521L32.6216 55.2433L32.3457 55.3069L32.2608 54.9462C32.0062 54.8613 31.8577 54.8401 31.6667 54.8825C31.3908 54.9462 31.2423 55.1796 31.2847 55.413C31.3272 55.6252 31.4757 55.7313 32.0486 55.9223C32.3245 56.0284 32.4942 56.092 32.5579 56.1133C32.6852 56.1769 32.8337 56.2618 32.9398 56.3891C33.0672 56.5377 33.152 56.6862 33.1945 56.8984C33.3218 57.4925 32.9823 58.0018 32.3881 58.1291C32.0911 58.1928 31.8577 58.1715 31.5818 58.0867L31.6667 58.2352Z" fill="#005288"/>
<path d="M37.0352 56.5377L34.7011 57.4501L34.6162 57.2379L34.9981 57.0894L33.8947 54.246L33.5128 54.3945L33.4279 54.1823L35.465 53.376L35.4013 53.2487L35.6771 53.1426L35.9742 53.9277L35.7196 54.0338L35.571 53.6731L34.5525 54.0762L34.9981 55.2433L35.7832 54.925L35.6559 54.5855L35.9106 54.4794L36.2925 55.4555L36.0379 55.5616L35.9106 55.2221L35.1254 55.5404L35.5923 56.7499L36.6532 56.3255L36.5047 55.9648L36.7806 55.8587L37.0352 56.5377Z" fill="#005288"/>
<path d="M40.5576 54.3946C40.2605 54.7765 40.0483 54.9675 39.7088 55.1797C38.754 55.7526 37.693 55.5192 37.1413 54.628C36.6108 53.7368 36.8866 52.6546 37.7779 52.1029C38.0749 51.9331 38.3083 51.8483 38.6266 51.8058L38.5205 51.6148L38.7752 51.4663L39.2632 52.2726L39.0086 52.4212L38.8388 52.1241C38.4781 52.1029 38.2871 52.1453 38.0537 52.2726C37.4171 52.6546 37.311 53.4397 37.7566 54.2036C38.2022 54.9463 39.0298 55.2221 39.6452 54.8402C39.8786 54.7129 40.0059 54.5643 40.1332 54.2885L39.921 53.949L40.1757 53.8004L40.5576 54.3946Z" fill="#005288"/>
<path d="M42.1491 48.9413L41.8308 49.2384L43.1676 50.7025C43.5708 51.1481 43.6769 51.5513 43.4859 52.0181C43.3798 52.2515 43.2313 52.4637 43.0403 52.6547C42.4037 53.2276 41.6822 53.2488 41.1942 52.7183L39.7513 51.1481L39.4542 51.4239L39.3057 51.2542L40.3879 50.2569L40.5364 50.4266L40.2393 50.7025L41.5761 52.1666C41.9369 52.5698 42.1703 52.6759 42.4674 52.591C42.5947 52.5486 42.7432 52.4849 42.8493 52.3788C43.3161 51.9544 43.3374 51.424 42.913 50.9571L41.5974 49.5142L41.2791 49.8113L41.1305 49.6415L42.043 48.814L42.1491 48.9413Z" fill="#005288"/>
<path d="M48.0905 45.8643L47.3903 47.1587L47.1993 47.0526L47.3903 46.6919L44.7166 45.249L44.5256 45.6097L44.3347 45.5036L45.0349 44.2092L45.2259 44.3153L45.0349 44.6548L47.7086 46.0978L47.8995 45.7582L48.0905 45.8643Z" fill="#005288"/>
<path d="M49.4273 42.7027L48.8332 44.2941L48.621 44.2092L48.7907 43.7212L46.0322 42.6815L45.7139 43.5302L46.1171 43.6788L46.011 43.9546L45.1622 43.6363L45.2683 43.3605L45.4169 43.4029L46.3081 41.0688L46.1595 41.0263L46.2656 40.7505L47.1144 41.0688L47.0083 41.3446L46.6052 41.1961L46.2869 42.0449L49.0454 43.0846L49.2151 42.6178L49.4273 42.7027Z" fill="#005288"/>
<path d="M50.361 38.7983L50.0851 40.2412L49.8729 40.1988L49.9578 39.8169L48.5361 39.541L46.7749 40.2625L46.7112 40.5808L46.4991 40.5383L46.7749 39.0954L46.9871 39.1378L46.9022 39.5198L48.1754 39.0105L47.1781 38.0981L47.0932 38.5437L46.881 38.5013L47.1144 37.2917L47.3266 37.3342L47.263 37.7161L48.5149 38.862L50.0851 39.1591L50.17 38.7559L50.361 38.7983Z" fill="#005288"/>
<path d="M46.8173 47.774L46.69 47.9438C46.6264 48.0287 46.5415 48.0499 46.3293 48.0287L44.95 47.9438C45.1198 47.4557 45.0137 47.0738 44.6317 46.7979C44.3983 46.6282 44.1649 46.5645 43.9315 46.607C43.6557 46.6494 43.4647 46.8192 43.1888 47.1799L42.2552 48.4318L42.4249 48.5592L42.6583 48.2409L45.0986 50.0657L44.8652 50.384L45.0349 50.5113L45.9261 49.3231L45.7564 49.1957L45.523 49.514L44.462 48.7289L44.5469 48.6228L46.011 48.7289C46.3505 48.7501 46.393 48.7289 46.5839 48.4743L46.9871 47.9438L46.8173 47.774ZM43.1464 47.7316L43.3374 47.4557C43.5708 47.1587 43.8891 47.1162 44.2286 47.3709C44.5681 47.6255 44.653 47.9862 44.4408 48.2833L44.2498 48.5379L43.1464 47.7316Z" fill="#005288"/>
<path d="M4.93023 42.0663L4.5695 40.6234L4.78169 40.5809L4.86657 40.9629L6.22461 40.6234L5.82145 38.947L4.4634 39.2865L4.54828 39.6685L4.33609 39.7109L3.97536 38.268L4.18755 38.2256L4.27243 38.6075L7.22193 37.8861L7.13705 37.5041L7.34924 37.4617L7.70997 38.9046L7.49778 38.947L7.4129 38.5651L6.11852 38.8834L6.52169 40.5597L7.81607 40.2414L7.73119 39.8595L7.94339 39.7958L8.30412 41.2387L8.09192 41.2812L8.00704 40.8992L5.05755 41.6207L5.16364 42.0026L4.93023 42.0663Z" fill="#005288"/>
<path d="M6.94607 42.8726C7.66753 42.5331 8.51631 42.6816 8.7285 43.1484C8.9407 43.6365 8.49509 44.358 7.77363 44.6975C7.05217 45.037 6.20339 44.8884 5.9912 44.4004C5.75778 43.9336 6.20339 43.2121 6.94607 42.8726ZM8.0707 45.3765C8.98313 44.9521 9.3863 43.9123 8.98313 43.0423C8.57997 42.1511 7.54022 41.7904 6.60656 42.2148C5.69413 42.6392 5.26974 43.6789 5.67291 44.5489C6.0973 45.4189 7.15827 45.8009 8.0707 45.3765Z" fill="#005288"/>
<path d="M9.42874 50.4054L8.5163 49.1323L8.68606 49.005L8.94069 49.3657L10.7868 48.0289L8.02826 48.5806L9.30142 46.0767L7.49777 47.3923L7.75241 47.753L7.58265 47.8803L6.86119 46.883L7.03095 46.7557L7.28558 47.1164L9.74703 45.334L9.4924 44.9733L9.66215 44.8459L10.2139 45.6098L8.96191 48.0713L11.5931 47.5196L12.2085 48.3684L12.0387 48.4957L11.7841 48.135L9.32264 49.9174L9.57728 50.2781L9.42874 50.4054Z" fill="#005288"/>
<path d="M12.1661 53.1003L10.32 51.4028L10.4685 51.233L10.7656 51.5089L12.8239 49.2808L12.5268 49.005L12.6753 48.8352L14.288 50.3206L14.3941 50.2145L14.6063 50.4054L14.0334 51.0208L13.8212 50.8298L14.0758 50.554L13.2695 49.8113L12.4207 50.7237L13.036 51.2967L13.2695 51.042L13.4817 51.233L12.7814 51.9969L12.5692 51.8059L12.8239 51.5301L12.2085 50.9571L11.3173 51.912L12.1661 52.6971L12.4207 52.4001L12.6329 52.591L12.1661 53.1003Z" fill="#005288"/>
<path d="M15.3277 55.2648L13.2482 53.8643L13.3756 53.6734L13.7151 53.9068L15.4126 51.3817L15.0731 51.1483L15.2004 50.9573L16.4312 51.7848L16.3038 51.9758L15.9643 51.7636L14.3304 54.2251L15.2641 54.8616L15.4763 54.5434L15.7097 54.7131L15.3277 55.2648Z" fill="#005288"/>
<path d="M17.4285 54.8191L18.4682 53.843L18.3833 55.2435L17.4285 54.8191ZM19.126 56.8774L18.9138 56.7925L19.126 53.1852L18.8289 53.0579L16.1977 55.5617L15.9007 55.4344L15.8158 55.6466L16.8131 56.0922L16.898 55.88L16.516 55.7103L17.1738 55.0737L18.3409 55.6042L18.2772 56.5166L17.9377 56.3681L17.8528 56.5591L19.0199 57.0895L19.126 56.8774Z" fill="#005288"/>
<path d="M22.7757 58.1295L22.415 58.0446L21.2267 55.0951L20.6962 57.3444L21.0994 57.4505L21.057 57.6627L19.8899 57.3868L19.9323 57.1746L20.3567 57.2807L20.9933 54.5858L20.8872 54.2888L20.5265 54.2039L20.5689 53.9917L21.5875 54.2463L22.6909 57.0049L23.2001 54.8405L22.797 54.7344L22.8394 54.5222L24.0065 54.798L23.964 55.0102L23.5396 54.9041L22.7757 58.1295Z" fill="#005288"/>
<path d="M26.2133 54.904L24.5582 54.8403V55.0525L24.9614 55.0737L24.8553 58.1081L24.4521 58.0869V58.2991L26.086 58.3628C26.5952 58.384 26.9772 58.2567 27.3379 57.9384C27.7199 57.5989 27.9109 57.1532 27.9321 56.6652C27.9745 55.7315 27.2106 54.9464 26.2133 54.904ZM27.1894 56.6864C27.1682 57.514 26.6377 58.1293 25.9799 58.1081L25.5555 58.0869L25.6616 55.1798L26.1072 55.2011C26.7013 55.2223 27.2106 55.9013 27.1894 56.6864Z" fill="#005288"/>
<path d="M44.1437 37.1644L42.8493 37.5676L43.1464 37.6949L42.7008 37.992C42.7432 37.7373 42.7857 37.4615 42.8281 37.1856L43.5495 36.5915L43.5708 36.9098L44.3771 35.8064L43.1464 36.3793L43.4435 36.4642L42.8705 36.931C42.913 36.6127 42.9342 36.2732 42.9554 35.9337L43.6556 35.1486L43.7193 35.4668L44.3771 34.2786L43.1888 35L43.5071 35.0425L42.9554 35.6366C42.9554 35.4244 42.9766 35.2122 42.9766 35.0212C42.9766 33.451 42.7432 31.9444 42.3188 30.5227C41.6186 30.5864 40.8971 30.353 40.5576 30.2893C41.47 30.8198 41.7883 31.3927 41.9157 32.0505C41.1942 32.2203 40.2181 31.9656 39.6876 31.5625C40.2181 32.0081 40.5364 32.7295 40.5576 33.4722C39.8149 33.5147 39.1147 33.1539 38.6054 32.6447C38.9237 33.0054 39.3481 33.939 39.242 34.5756C38.6266 34.512 37.884 34.1088 37.4808 33.5995C37.8203 34.3422 37.9688 34.9364 37.9264 35.5942C37.311 35.4668 36.823 35.2971 36.2713 34.7666C36.5471 35.4456 36.632 36.1034 36.5896 36.6551C35.8681 36.4005 35.4013 36.1246 34.9981 35.4456C35.2103 36.0398 35.3589 36.8249 35.2103 37.2917C34.595 37.1007 34.1918 36.74 33.8947 36.1246C34.213 36.7824 34.1706 37.5463 34.0645 37.9495C33.8098 37.9071 33.4703 37.7161 33.3006 37.5251C33.3006 37.6524 33.2794 37.7585 33.2794 37.8646C33.2581 38.3102 33.152 38.7346 33.0247 39.1166C33.0672 39.1802 33.1945 39.3076 33.1945 39.3288C33.5128 39.6683 33.9584 40.0078 34.2979 40.1139C34.1494 40.1351 33.9372 40.2624 33.7462 40.2836C33.9796 40.5383 34.4464 40.6019 34.7223 40.899C34.4889 40.9202 34.4464 41.09 34.1706 41.0475C34.6798 41.4507 35.1679 41.4719 35.4225 41.4932C35.5286 41.5144 35.8681 41.5356 36.1015 41.5144C36.3774 41.4719 36.6532 41.578 36.8018 41.6629L39.6452 35.9124L39.3269 35.9761L40.2181 34.9576L39.9423 36.2944L39.7937 36.0185L36.9503 41.7902C36.9928 41.8539 37.0352 41.9388 37.0352 42.0236H37.0564L37.1625 41.9388L41.7459 38.3102L41.4488 38.2254L42.7008 37.6737L41.8732 38.7558L41.852 38.4376L37.2474 42.0024C37.3747 42.0236 37.4808 42.0661 37.5232 42.1297C37.6081 42.2571 37.5869 42.3207 37.502 42.5329C37.4384 42.7451 37.3747 42.8088 37.2474 42.83C37.2049 42.83 37.1413 42.8512 37.0564 42.8088C37.0989 42.83 37.1201 42.8512 37.1413 42.9149C37.1625 42.9785 37.2049 43.0634 37.0352 43.2544C36.8867 43.4241 36.7381 43.4878 36.632 43.4241C36.5684 43.3817 36.5471 43.3392 36.5047 43.318C36.5259 43.3605 36.5471 43.4241 36.5471 43.4666C36.5684 43.6363 36.441 43.7 36.2925 43.7636C35.9742 43.8697 35.8257 43.8273 35.762 43.7212C35.6135 43.4878 35.6984 43.1907 35.8045 43.127C35.7832 43.2119 35.7832 43.318 35.8045 43.4241C35.8257 43.509 35.8681 43.6575 36.0379 43.6575C36.1228 43.6575 36.2925 43.6151 36.3986 43.5514C36.4623 43.509 36.4623 43.3817 36.441 43.2756C36.4198 43.2331 36.3986 43.1483 36.335 43.1058C36.441 43.127 36.5047 43.1907 36.5684 43.2544C36.6532 43.318 36.7593 43.3392 36.8442 43.2544C36.9291 43.1695 36.9928 43.0846 37.014 43.021C37.0988 42.8512 36.8867 42.7239 36.7593 42.6602C36.9715 42.6602 37.014 42.7451 37.1837 42.7239C37.3535 42.7027 37.4171 42.4268 37.4171 42.3207C37.4171 42.2571 37.3323 42.1934 37.2474 42.151C37.1837 42.1297 37.0776 42.1297 37.014 42.1297C37.014 42.151 37.014 42.1722 36.9928 42.1934C36.9715 42.2783 36.9291 42.3632 36.8018 42.448C36.7169 42.4692 36.6745 42.4692 36.7593 42.4268C36.8442 42.3631 36.9079 42.0449 36.7381 41.8963C36.6108 41.8114 36.441 41.7266 36.2289 41.7266C35.9954 41.7478 35.6347 41.769 35.465 41.7478C35.3164 41.7266 35.2103 41.9388 35.1891 42.0236C35.1254 42.2358 35.0618 42.4905 34.7647 42.3631C34.404 42.151 33.8735 42.1722 33.2581 41.9175C33.343 42.1085 33.3006 42.2571 33.4067 42.4692C32.8762 42.3419 32.7277 42.0661 32.2184 41.8751C32.3033 42.0661 32.282 42.2146 32.3881 42.3844C31.9638 42.2995 31.5606 41.9175 30.9452 41.769C30.924 41.769 30.9028 41.7902 30.8816 41.7902C30.6694 41.8539 30.4572 41.9175 30.2874 41.9812C30.7118 42.4692 31.0725 43.0634 31.2211 43.7636C31.2211 43.7636 30.924 43.7636 30.4784 43.6151C30.6057 43.997 30.6906 44.4214 30.6906 44.867C30.6906 44.867 30.3511 44.8034 29.8843 44.5275C29.9267 44.9519 29.9055 45.3975 29.8206 45.8431C29.8206 45.8431 29.4386 45.6734 28.9718 45.2066C28.9294 45.6522 28.8021 46.0978 28.6111 46.5222C28.6111 46.5222 28.2504 46.2887 27.8896 45.7158C27.7411 46.1614 27.5289 46.5858 27.2318 46.989C27.2318 46.989 26.8499 46.5858 26.574 45.7583C26.2133 46.2887 25.895 46.5222 25.895 46.5222C25.704 46.0765 25.5979 45.6309 25.5343 45.2066C25.0674 45.6734 24.6855 45.8431 24.6855 45.8431C24.6006 45.3975 24.5794 44.9519 24.6218 44.5275C24.155 44.8034 23.8155 44.867 23.8155 44.867C23.8155 44.4214 23.9004 43.997 24.0277 43.6151C23.5821 43.7636 23.285 43.7636 23.285 43.7636C23.4548 43.0422 23.9216 42.2783 24.2611 41.9388C24.1126 41.8963 23.9428 41.8327 23.7518 41.7902C23.7306 41.7902 23.7094 41.769 23.6882 41.769C23.094 41.9388 22.6909 42.3207 22.2453 42.3844C22.3514 42.2146 22.3301 42.0661 22.415 41.8751C21.9058 42.0449 21.7572 42.3207 21.2267 42.4692C21.3116 42.2571 21.2904 42.1085 21.3753 41.9175C20.866 42.151 20.187 42.3419 19.8899 42.4056C19.5504 42.4692 19.5292 41.9812 19.4231 41.8751C19.3806 41.8327 19.1048 41.8114 18.9987 41.8327C18.8289 41.8539 18.5106 41.8539 18.2772 41.8327C18.0438 41.8327 17.8741 41.8963 17.7468 42.0024C17.577 42.1297 17.6619 42.4905 17.7255 42.5329C17.8104 42.5966 17.7468 42.5966 17.6831 42.5541C17.5346 42.4692 17.5133 42.3844 17.4709 42.2995C17.4709 42.2995 17.4709 42.2783 17.4709 42.2571C17.4072 42.2571 17.2799 42.2358 17.195 42.2571C17.0889 42.2783 17.0041 42.3419 17.0041 42.4056C17.0041 42.4905 17.0465 42.7663 17.2163 42.8088C17.386 42.83 17.4285 42.7663 17.6407 42.7451C17.5133 42.8088 17.3011 42.9361 17.386 43.1058C17.4072 43.1695 17.4709 43.2331 17.5558 43.3392C17.6194 43.4241 17.7468 43.4029 17.8316 43.3392C17.9165 43.2756 17.9802 43.2119 18.0863 43.1907C18.0226 43.2331 18.0014 43.318 17.9802 43.3605C17.9377 43.4666 17.9377 43.5727 18.0014 43.6363C18.1075 43.7 18.256 43.7424 18.3621 43.7636C18.5319 43.7849 18.5743 43.6363 18.5955 43.5514C18.6167 43.4453 18.6167 43.3392 18.5955 43.2544C18.7016 43.318 18.7865 43.6151 18.6167 43.8485C18.5319 43.9546 18.3833 43.997 18.0863 43.8909C17.9165 43.8273 17.7892 43.7636 17.8316 43.5939C17.8316 43.5514 17.8528 43.4878 17.8741 43.4453C17.8316 43.4878 17.8104 43.5302 17.7468 43.5514C17.6194 43.6151 17.4921 43.5514 17.3436 43.3817C17.1738 43.1907 17.2163 43.0846 17.2375 43.0422C17.2587 42.9785 17.2799 42.9573 17.3224 42.9361C17.2375 42.9573 17.1738 42.9573 17.1314 42.9573C17.0041 42.9361 16.9404 42.8724 16.8768 42.6602C16.8131 42.448 16.7919 42.3844 16.8768 42.2571C16.9404 42.1722 17.2799 42.1085 17.4497 42.151C17.4497 42.0236 17.4921 41.8963 17.6194 41.8327C17.7468 41.769 18.065 41.5993 18.3833 41.6417C18.5955 41.6841 18.9563 41.6417 19.0624 41.6205C19.1685 41.5992 19.9536 41.4719 20.4628 41.0688C20.187 41.09 20.1445 40.9414 19.9111 40.9202C20.2082 40.6232 20.675 40.5595 20.8872 40.3049C20.675 40.2836 20.5053 40.1139 20.3567 40.0927C20.8023 39.838 21.1206 39.6895 21.4389 39.35C21.4389 39.35 21.5662 39.2015 21.6087 39.159C21.4601 38.7771 21.3753 38.3527 21.354 37.9071C21.354 37.801 21.3328 37.6949 21.3328 37.5676C21.2267 37.6949 20.9933 37.8222 20.6114 37.9495C20.4416 37.5251 20.5265 36.74 20.7387 36.1246C20.4204 36.74 20.0597 37.1432 19.4443 37.3341C19.2958 36.8673 19.3806 36.0822 19.5928 35.4881C19.1897 36.1671 18.7653 36.5066 18.0438 36.7612C17.9802 36.2095 18.0438 35.4881 18.2985 34.809C17.7467 35.3395 17.2799 35.5093 16.6433 35.6366C16.6009 34.9788 16.7707 34.3847 17.0889 33.642C16.6858 34.13 15.8582 34.4695 15.2429 34.5332C15.2853 33.9603 15.6885 33.1751 15.9219 32.7295C15.3277 33.1539 14.7124 33.451 14.0334 33.4934C14.1182 32.8569 14.4153 32.1566 14.9033 31.5837C14.3092 32.0081 13.418 32.2415 12.7602 32.1566C12.9299 31.4564 13.3543 30.7561 13.9485 30.3954C13.609 30.4591 12.9936 30.6076 12.2721 30.5439C11.8478 31.9444 11.6143 33.4298 11.6143 34.9788C11.2536 34.7029 11.0202 34.6393 10.7656 34.3847C10.808 34.7242 10.8504 34.8939 10.8929 35.3183C10.9565 36.061 11.2324 36.4854 11.6992 36.74C11.7204 36.9522 11.7417 37.1644 11.7841 37.3766C11.4446 37.1644 10.9778 37.0159 10.3624 37.0159C10.7443 38.2254 11.2536 38.3102 11.9751 38.4376C11.9963 38.5437 12.0175 38.6498 12.0599 38.7771C11.678 38.671 11.2324 38.671 10.7019 38.8195C11.0626 39.3712 11.5507 39.7107 12.357 39.838C12.357 39.838 12.357 39.838 12.357 39.8593C11.869 39.8168 11.3385 39.8805 10.9141 40.1139C11.5082 40.6232 12.1024 40.8354 12.6753 40.7717C12.6965 40.8354 12.739 40.9202 12.7602 40.9839C12.3146 41.1112 11.9326 41.3234 11.6992 41.5568C12.166 41.7053 12.6541 41.7902 13.0785 41.7478C13.0785 41.769 13.0785 41.769 13.0997 41.7902C12.8451 41.9812 12.6329 42.2995 12.4843 42.7875C12.8238 42.7027 13.1634 42.6814 13.5029 42.5753C13.5665 42.7027 13.6514 42.83 13.7151 42.9573C13.5453 43.2968 13.4816 43.7212 13.5877 44.2092C13.8636 44.1456 14.1182 44.0395 14.3092 43.8909C14.3729 43.997 14.4365 44.0819 14.5214 44.188C14.4577 44.7397 14.5851 45.2914 14.9033 45.6522C15.0307 45.5036 15.1368 45.3551 15.2216 45.2278C15.9219 44.1456 15.4975 43.3605 15.5187 42.6602C15.5187 42.639 15.5399 42.639 15.5399 42.6178C15.6036 43.4453 16.3251 44.2729 15.4763 45.2914C15.4551 45.3126 15.4551 45.3339 15.4338 45.3551C18.256 48.5804 22.5211 50.7024 27.2743 50.7024C34.022 50.7024 39.7725 46.4373 41.9793 40.4534L42.7008 40.1351L42.6371 40.4534L43.6556 39.5622L42.3188 39.838L42.5947 39.9866L42.043 40.22C42.1491 39.9441 42.2339 39.6683 42.3188 39.3712L43.1039 38.9468L43.0827 39.2651L44.0164 38.289L42.722 38.6922L43.0191 38.8195L42.4037 39.159C42.4886 38.8619 42.5522 38.5437 42.6371 38.2254L43.2313 37.8434L43.21 38.1617L44.1437 37.1644Z" fill="#005288"/>
<path d="M36.9715 42.1296C37.0352 42.1296 37.1201 42.1296 37.2049 42.1509C37.311 42.1721 37.3747 42.2357 37.3747 42.3206C37.3747 42.4055 37.3323 42.6813 37.1413 42.7238C36.9715 42.745 36.9291 42.6601 36.7169 42.6601C36.8442 42.7238 37.0564 42.8511 36.9715 43.0209C36.9503 43.0845 36.8867 43.1482 36.8018 43.2543C36.7381 43.3179 36.6108 43.3179 36.5259 43.2543C36.441 43.1906 36.3774 43.127 36.2925 43.1057C36.3562 43.1694 36.3774 43.233 36.3986 43.2755C36.441 43.3816 36.441 43.4877 36.3562 43.5513C36.2501 43.615 36.0803 43.6574 35.9954 43.6574C35.8257 43.6787 35.7832 43.5301 35.762 43.424C35.7408 43.3179 35.7408 43.2118 35.762 43.127C35.6559 43.1694 35.571 43.4877 35.7196 43.7211C35.7832 43.8272 35.953 43.8696 36.2501 43.7635C36.4198 43.6999 36.5471 43.6362 36.5047 43.4665C36.5047 43.424 36.4835 43.3604 36.4623 43.3179C36.4835 43.3604 36.5047 43.4028 36.5896 43.424C36.6957 43.4877 36.8442 43.424 36.9927 43.2543C37.1625 43.0633 37.1201 42.9572 37.0988 42.9148C37.0776 42.8511 37.0564 42.8299 37.014 42.8087C37.0988 42.8511 37.1625 42.8299 37.2049 42.8299C37.3323 42.8087 37.3959 42.745 37.4596 42.5328C37.5232 42.3206 37.5445 42.257 37.4808 42.1296C37.4384 42.0872 37.3323 42.0235 37.2049 42.0023L41.7671 38.4162L41.7883 38.7345L42.6159 37.6523L41.3639 38.204L41.661 38.2889L37.0776 41.9174L36.9715 42.0023H36.9503" fill="white"/>
<path d="M36.8867 41.7689L39.7513 35.9972L39.8998 36.2731L40.1757 34.9363L39.2844 35.9548L39.5815 35.9124L36.7593 41.6628" fill="white"/>
<path d="M36.1864 42.4056C36.2713 42.5542 36.2713 42.8088 36.2289 42.9361C36.5259 42.8937 36.5896 42.5966 36.6108 42.4481C36.5047 42.342 36.2925 42.3208 36.1864 42.4056Z" fill="white"/>
<path d="M36.1228 42.4268C35.953 42.4056 35.8893 42.3207 35.8469 42.2358C35.8045 42.151 35.7196 42.0873 35.7196 42.2358C35.7196 42.3631 35.7196 42.4268 35.7832 42.448C35.8681 42.4905 35.9954 42.5117 36.1228 42.4268Z" fill="white"/>
<path d="M36.144 42.9785C36.0803 42.8936 36.0591 42.8087 36.0379 42.7026C35.9954 42.7663 35.9318 42.9997 35.9106 43.1482C35.9106 43.1907 35.9106 43.1907 35.9954 43.2119C36.1015 43.2119 36.2076 43.1907 36.2925 43.127C36.2501 43.0846 36.1864 43.0421 36.144 42.9785Z" fill="white"/>
<path d="M39.624 36.931L39.9422 36.9097L38.1598 39.6046C37.9476 40.029 37.7566 40.4322 37.5657 40.7929L37.5869 40.7717L40.0696 36.9946L40.1757 37.2917L40.6213 35.9973L39.624 36.931Z" fill="white"/>
<path d="M38.9449 39.3075L42.1915 35.2122L42.2764 35.5093L42.8281 34.2573L41.7459 35.0849L42.0642 35.1061L39.1147 38.8195C38.8813 39.159 38.6479 39.541 38.4145 39.8805C38.5842 39.6895 38.7752 39.4985 38.9449 39.3075Z" fill="white"/>
<path d="M38.563 40.5171C38.8388 40.3049 39.1147 40.0715 39.3905 39.8593L42.0854 37.3554L42.1278 37.6737L42.8493 36.5278L41.661 37.1644L41.9793 37.2281L39.2845 39.732C39.0298 40.0078 38.7752 40.2837 38.563 40.5171Z" fill="white"/>
<path d="M41.5549 39.9229L37.7567 41.8327C37.693 41.8963 37.6293 41.9176 37.6081 41.96C37.6293 41.9812 37.6506 42.0024 37.6718 42.0237C37.6718 42.0449 37.693 42.0449 37.693 42.0661L41.6398 40.0927L41.5974 40.411L42.6159 39.5198L41.2791 39.7956L41.5549 39.9229Z" fill="white"/>
<path d="M35.8257 43.9545C35.762 43.9333 35.7196 43.9121 35.6772 43.8696L34.9981 45.2701L34.7435 45.355L33.9372 46.904L34.3191 46.7767L34.4676 47.1586L35.2315 45.5884L35.1467 45.3338L35.8257 43.9545Z" fill="white"/>
<path d="M38.4569 41.281C38.7115 41.1537 39.0086 41.0051 39.3269 40.8566L41.852 39.2015L41.8308 39.5198L42.7432 38.5225L41.4488 38.9468L41.7459 39.0529L39.0086 40.8566C38.8176 41.0051 38.6266 41.1537 38.4569 41.281Z" fill="white"/>
<path d="M35.5074 43.5725C35.4862 43.4876 35.4862 43.424 35.4862 43.3391L34.595 44.3152L34.3403 44.3364L34.3191 44.3576L33.0672 45.6096H33.1308H33.152L33.4703 45.5884L33.534 45.8854L34.5737 44.5274L34.7647 44.485L35.5074 43.5725Z" fill="white"/>
<path d="M37.1625 41.6205C37.2686 41.5356 37.4384 41.4083 37.6293 41.2598L42.0642 36.4217L42.1278 36.74L42.7644 35.5305L41.6186 36.2732L41.9369 36.3156L37.2898 41.3659C37.2474 41.4507 37.2049 41.5356 37.1625 41.6205Z" fill="white"/>
<path d="M33.1945 44.9307L34.8496 43.7637C35.0406 43.5515 35.2528 43.3393 35.3164 43.2544L33.2581 44.6124L33.0035 44.5488L32.855 44.6337L31.5394 45.4612L31.9213 45.5461L31.9638 45.8219L33.0247 44.9095L33.1945 44.9307Z" fill="white"/>
<path d="M31.8364 45.0791L32.4942 44.676L33.1096 44.2516L33.3218 44.294C33.3218 44.294 34.8284 43.3603 35.1891 43.1269C35.2103 43.1057 35.2103 43.1057 35.2103 43.1057C35.2103 43.1057 35.2103 43.1057 35.2315 43.1057L33.2581 44.0818L33.0035 43.9969L31.4333 44.7396L31.794 44.8669L31.8364 45.0791Z" fill="white"/>
<path d="M17.4285 42.1297C17.2587 42.0873 16.9192 42.1509 16.8555 42.2358C16.7707 42.3631 16.7919 42.4268 16.8555 42.639C16.9192 42.8512 16.9616 42.9148 17.1102 42.9361C17.1526 42.9361 17.2163 42.9573 17.3012 42.9148C17.2587 42.9361 17.2375 42.9573 17.2163 43.0209C17.1951 43.0846 17.1526 43.1695 17.3224 43.3604C17.4709 43.5302 17.5982 43.5939 17.7255 43.5302C17.7892 43.4878 17.8104 43.4453 17.8529 43.4241C17.8316 43.4665 17.8104 43.5302 17.8104 43.5726C17.768 43.7424 17.8953 43.8061 18.065 43.8697C18.3621 43.997 18.5107 43.9546 18.5955 43.8273C18.7653 43.5939 18.6804 43.2968 18.5743 43.2331C18.5955 43.318 18.5955 43.4241 18.5743 43.5302C18.5531 43.6151 18.5107 43.7636 18.3409 43.7424C18.256 43.7424 18.0863 43.6787 17.9802 43.6151C17.9165 43.5726 17.9165 43.4453 17.959 43.3392C17.9802 43.2968 18.0014 43.2119 18.065 43.1695C17.959 43.1907 17.8953 43.2543 17.8104 43.318C17.7255 43.3817 17.6194 43.4029 17.5346 43.318C17.4497 43.2331 17.386 43.1483 17.3648 43.0846C17.3012 42.9148 17.5133 42.8087 17.6194 42.7239C17.4072 42.7239 17.3648 42.8087 17.1951 42.7875C17.0253 42.7663 16.9829 42.4904 16.9829 42.3844C16.9829 42.3207 17.0677 42.257 17.1738 42.2358C17.2587 42.2146 17.386 42.2146 17.4497 42.2358" fill="white"/>
<path d="M13.5241 40.3474C13.5453 40.3474 13.5665 40.3474 13.5241 40.3474C13.0361 40.0715 12.6965 39.9867 12.0387 40.0715C12.6541 40.114 13.0785 40.1776 13.5241 40.3474Z" fill="white"/>
<path d="M13.8212 43.6789C13.8848 43.2333 14.1819 42.6816 14.6275 42.3209C14.9458 42.0663 15.1156 41.9602 14.8609 42.236C14.4577 42.6392 14.0121 43.3182 13.8212 43.6789Z" fill="white"/>
<path d="M14.776 44.9095C14.6063 44.4851 14.7548 43.8061 14.9458 43.3393C15.0731 43.021 15.3914 42.5542 15.4975 42.5117C15.1368 43.0634 14.7548 44.5063 14.776 44.9095Z" fill="white"/>
<path d="M13.3543 38.9469C13.3119 38.7771 13.1634 38.671 12.9936 38.7135C12.8239 38.7559 12.7178 38.9044 12.7602 39.0742C12.8026 39.2439 12.9512 39.35 13.1209 39.3076C13.2907 39.2652 13.3968 39.1166 13.3543 38.9469Z" fill="white"/>
<path d="M15.9643 39.3502C15.9643 38.9046 15.9007 38.4377 15.9643 37.9285C15.0731 38.5863 14.776 39.7109 15.1368 40.5172C15.0943 40.5172 15.0519 40.5172 15.0307 40.5172C14.8609 40.5597 14.7548 40.7082 14.7973 40.878C14.8397 41.0477 14.9882 41.1538 15.158 41.1114C15.3277 41.0689 15.4338 40.9204 15.3914 40.7506C15.3702 40.6658 15.3277 40.6021 15.2641 40.5597C15.1156 39.8594 15.2429 38.9682 15.6036 38.6075C15.4975 39.0531 15.2853 39.9655 15.4126 40.8143C15.5612 40.6445 15.6673 40.496 15.7521 40.3263C15.7734 40.4536 15.7946 40.6021 15.8582 40.7506C15.8795 40.0716 16.1129 39.3926 16.8131 38.9258C16.3038 39.5836 16.0068 40.3475 15.9431 40.9204C16.3251 40.4536 17.1738 40.305 17.2375 38.4377C16.7707 38.5863 16.2614 38.9046 15.9643 39.3502Z" fill="white"/>
<path d="M16.5372 41.2809C16.4948 41.1112 16.3251 40.9839 16.1553 41.0263C15.9855 41.0687 15.8582 41.2385 15.9007 41.4082C15.9431 41.578 16.1129 41.7053 16.2826 41.6629C16.4736 41.6204 16.5797 41.4507 16.5372 41.2809Z" fill="white"/>
<path d="M16.4312 42.2572C16.3887 42.0875 16.219 41.9602 16.0492 42.0026C15.8794 42.045 15.7521 42.2148 15.7946 42.3846C15.837 42.5543 16.0068 42.6816 16.1765 42.6392C16.3675 42.5968 16.4736 42.427 16.4312 42.2572Z" fill="white"/>
<path d="M14.5638 37.4827C13.906 38.0344 13.7151 38.7134 13.7999 39.3288C13.7787 39.3288 13.7575 39.3288 13.7151 39.3288C13.5877 39.35 13.4817 39.4985 13.5241 39.6258C13.5453 39.7531 13.6938 39.8592 13.8212 39.8168C13.8424 39.8168 13.8848 39.7956 13.906 39.7744C13.9697 39.9441 14.0546 40.1139 14.1395 40.2412C14.0758 40.029 14.0334 39.8168 14.0121 39.5834C14.0121 39.5622 14.0121 39.5409 14.0121 39.4985V39.4773C13.9697 38.968 14.0546 38.4375 14.3516 38.0556C14.2668 38.6073 14.1395 39.7107 14.2456 40.3685C14.4365 39.6683 15.4551 39.35 14.5638 37.4827Z" fill="white"/>
<path d="M17.195 41.7054C17.1738 41.578 17.0253 41.4719 16.898 41.5144C16.7707 41.5356 16.6646 41.6841 16.707 41.8115C16.7282 41.9388 16.8768 42.0449 17.0041 42.0024C17.1314 41.9812 17.2163 41.8539 17.195 41.7054Z" fill="white"/>
<path d="M15.7946 41.663C15.7734 41.5357 15.646 41.4508 15.5187 41.4932C15.3914 41.5144 15.3065 41.6418 15.3277 41.7691C15.349 41.8964 15.4763 41.9813 15.6036 41.96C15.7521 41.9176 15.8158 41.7903 15.7946 41.663Z" fill="white"/>
<path d="M12.6329 38.4801C12.6117 38.374 12.5268 38.3103 12.4207 38.3103C12.1024 37.8647 11.6356 37.3979 10.8504 37.313C11.2748 37.5252 11.9114 37.9071 12.3782 38.3103C12.2721 38.3315 12.2085 38.4376 12.2297 38.5437C12.2509 38.671 12.357 38.7347 12.4843 38.7135C12.5692 38.6923 12.6541 38.5862 12.6329 38.4801Z" fill="white"/>
<path d="M12.6329 36.9946C12.6117 36.8461 12.4631 36.7612 12.3146 36.7825H12.2934C12.1236 36.0822 11.9539 35.5517 11.1687 35.0212C11.5719 35.5305 12.0175 36.252 12.2722 36.8037C12.1448 36.8461 12.0812 36.9734 12.1024 37.1007C12.1236 37.2493 12.2722 37.3342 12.4207 37.3129C12.5692 37.2917 12.6541 37.1432 12.6329 36.9946Z" fill="white"/>
<path d="M13.4392 39.7107C13.418 39.6046 13.3119 39.5197 13.1846 39.541C13.1209 39.541 13.0785 39.5834 13.0573 39.6258C12.357 39.0105 11.8902 39.0105 11.5083 38.9893C11.7204 39.0741 12.5268 39.2863 13.0361 39.6471C13.0148 39.6895 13.0148 39.7319 13.0148 39.7744C13.0361 39.9017 13.1421 39.9654 13.2695 39.9441C13.3756 39.9441 13.4604 39.838 13.4392 39.7107Z" fill="white"/>
<path d="M14.0121 40.5809C13.9697 40.4112 13.8212 40.3051 13.6514 40.3475C13.4817 40.3899 13.3756 40.5385 13.418 40.7082C13.4604 40.878 13.609 40.9841 13.7787 40.9416C13.9485 40.9204 14.0546 40.7507 14.0121 40.5809Z" fill="white"/>
<path d="M14.4578 41.1113C14.4365 40.984 14.3304 40.9203 14.2031 40.9415C14.1395 40.9627 14.0758 41.0052 14.0334 41.0688C13.418 40.984 12.7602 41.0688 12.2085 41.3871C12.8239 41.2386 13.4817 41.1113 14.0121 41.1113C14.0121 41.1325 14.0121 41.1749 14.0121 41.1962C14.0334 41.3023 14.1395 41.3871 14.2668 41.3659C14.4153 41.3447 14.479 41.2386 14.4578 41.1113Z" fill="white"/>
<path d="M15.0943 41.4721C15.0731 41.3236 14.9246 41.2175 14.7548 41.2599C14.6063 41.2811 14.5002 41.4297 14.5426 41.5782H14.5214C14.0758 41.557 13.3331 41.6843 12.8663 42.2148C13.3331 41.9389 14.0758 41.6631 14.5214 41.5994C14.5214 41.5994 14.5214 41.5994 14.5426 41.5994C14.5851 41.748 14.7124 41.8328 14.8609 41.8116C15.0307 41.7692 15.1155 41.6206 15.0943 41.4721Z" fill="white"/>
<path d="M13.9485 35.9761C12.93 36.4217 12.4631 37.6736 12.9936 38.6073C13.4604 37.9283 14.3517 37.7797 13.9485 35.9761ZM12.9936 38.5648C12.8663 38.0556 13.1846 36.6975 13.6514 36.4217C13.3543 37.0795 13.227 37.6948 12.9936 38.5648Z" fill="white"/>
<path d="M12.93 34.0876C12.6117 34.215 12.1448 34.6606 11.9539 35.2547C12.0387 35.3396 12.1024 35.4457 12.1661 35.5518C12.2721 35.1274 12.5268 34.6181 12.7602 34.4059C12.5904 34.6818 12.3782 35.2972 12.2721 35.764C12.3782 36.0398 12.4419 36.3157 12.4207 36.5703C13.0148 36.0186 13.227 35.0425 12.93 34.0876Z" fill="white"/>
<path d="M19.0199 42.8938C20.2931 43.8487 21.0145 45.1855 21.2055 46.2677C21.0358 46.1404 20.7387 46.0343 20.5689 46.0555C20.3992 44.9309 19.805 43.9972 18.8714 43.2545C18.9138 43.0848 18.9563 42.9575 19.0199 42.8938Z" fill="white"/>
<path d="M17.8104 42.5543C17.8953 42.4482 18.1075 42.427 18.2348 42.5118C18.1499 42.6604 18.1499 42.915 18.1924 43.0423C17.8953 42.9999 17.8316 42.7028 17.8104 42.5543Z" fill="white"/>
<path d="M18.2772 42.533C18.447 42.5118 18.5107 42.4269 18.5531 42.342C18.5743 42.2572 18.6804 42.1935 18.6804 42.342C18.6804 42.4693 18.6804 42.533 18.6167 42.5754C18.5531 42.5967 18.4046 42.6179 18.2772 42.533Z" fill="white"/>
<path d="M18.3833 42.8088C18.3621 42.8937 18.3409 42.9998 18.2772 43.0847C18.2348 43.1483 18.1711 43.1908 18.1287 43.2332C18.2136 43.2969 18.3197 43.3393 18.4258 43.3181C18.5319 43.3181 18.5319 43.2969 18.5107 43.2544C18.4682 43.1059 18.4046 42.8725 18.3833 42.8088Z" fill="white"/>
</g>
</g>
<defs>
<clipPath id="clip0_2_1459">
<rect width="150" height="70" fill="white" transform="translate(0.75)"/>
</clipPath>
<clipPath id="clip1_2_1459">
<rect width="150" height="53.0485" fill="white" transform="translate(0.75 8.47583)"/>
</clipPath>
</defs>
</svg>
