<svg width="150" height="61" viewBox="0 0 150 61" fill="none" xmlns="http://www.w3.org/2000/svg">
<g clip-path="url(#clip0_2_1227)">
<g clip-path="url(#clip1_2_1227)">
<path d="M14.6486 56.534C12.7826 56.534 11.2982 56.0236 10.1956 55.0029C9.09293 53.9679 8.5416 52.4935 8.5416 50.5796V47.0069C8.5416 45.093 9.09293 43.6257 10.1956 42.6049C11.2982 41.5699 12.7826 41.0525 14.6486 41.0525C16.5147 41.0525 17.999 41.5699 19.1016 42.6049C20.2044 43.6257 20.7557 45.093 20.7557 47.0069V50.5796C20.7557 52.4935 20.2044 53.9679 19.1016 55.0029C17.999 56.0236 16.5147 56.534 14.6486 56.534ZM14.6486 54.0246C15.6947 54.0246 16.5076 53.7199 17.0872 53.1102C17.6668 52.5006 17.9566 51.6854 17.9566 50.6646V46.9219C17.9566 45.9011 17.6668 45.0859 17.0872 44.4763C16.5076 43.8666 15.6947 43.5619 14.6486 43.5619C13.6167 43.5619 12.8038 43.8666 12.2101 44.4763C11.6305 45.0859 11.3407 45.9011 11.3407 46.9219V50.6646C11.3407 51.6854 11.6305 52.5006 12.2101 53.1102C12.8038 53.7199 13.6167 54.0246 14.6486 54.0246Z" fill="#464648"/>
<path d="M22.8716 60.4896V45.6886H25.5009V46.9645H25.8826C26.1229 46.5534 26.4976 46.1919 27.0065 45.88C27.5154 45.5539 28.2434 45.3909 29.1906 45.3909C30.0388 45.3909 30.8234 45.6035 31.5444 46.0288C32.2653 46.44 32.8449 47.0496 33.2831 47.8577C33.7214 48.6658 33.9406 49.644 33.9406 50.7924V51.1326C33.9406 52.281 33.7214 53.2592 33.2831 54.0673C32.8449 54.8754 32.2653 55.4921 31.5444 55.9175C30.8234 56.3286 30.0388 56.5342 29.1906 56.5342C28.5545 56.5342 28.0173 56.4562 27.579 56.3002C27.1549 56.1584 26.8086 55.9742 26.54 55.7473C26.2856 55.5063 26.0806 55.2653 25.925 55.0243H25.5434V60.4896H22.8716ZM28.3848 54.1949C29.2189 54.1949 29.9045 53.9327 30.4417 53.4081C30.993 52.8694 31.2687 52.0896 31.2687 51.0688V50.8562C31.2687 49.8354 30.993 49.0628 30.4417 48.5382C29.8904 47.9995 29.2047 47.7301 28.3848 47.7301C27.5649 47.7301 26.8792 47.9995 26.3279 48.5382C25.7766 49.0628 25.5009 49.8354 25.5009 50.8562V51.0688C25.5009 52.0896 25.7766 52.8694 26.3279 53.4081C26.8792 53.9327 27.5649 54.1949 28.3848 54.1949Z" fill="#464648"/>
<path d="M40.762 56.5342C39.716 56.5342 38.79 56.3144 37.9842 55.8749C37.1926 55.4213 36.5705 54.7904 36.1182 53.9823C35.68 53.16 35.4608 52.1959 35.4608 51.0901V50.8349C35.4608 49.7291 35.68 48.7721 36.1182 47.964C36.5564 47.1417 37.1714 46.5109 37.963 46.0714C38.7547 45.6177 39.6735 45.3909 40.7197 45.3909C41.7517 45.3909 42.6493 45.6248 43.4127 46.0926C44.1761 46.5463 44.7698 47.1843 45.1939 48.0066C45.618 48.8147 45.8301 49.7574 45.8301 50.8349V51.7494H38.175C38.2034 52.4724 38.4719 53.0608 38.9809 53.5144C39.4898 53.9681 40.1118 54.1949 40.8469 54.1949C41.5961 54.1949 42.1474 54.0319 42.5009 53.7058C42.8543 53.3798 43.1229 53.0182 43.3066 52.6212L45.4908 53.7696C45.2929 54.1382 45.003 54.5422 44.6214 54.9818C44.2538 55.4071 43.7591 55.7757 43.137 56.0876C42.515 56.3853 41.7233 56.5342 40.762 56.5342ZM38.1962 49.7504H43.1159C43.0593 49.1407 42.8119 48.6516 42.3737 48.283C41.9496 47.9144 41.3911 47.7301 40.6985 47.7301C39.9775 47.7301 39.405 47.9144 38.9809 48.283C38.5568 48.6516 38.2952 49.1407 38.1962 49.7504Z" fill="#464648"/>
<path d="M47.7841 56.2363V45.6884H50.4134V47.0707H50.7951C50.9648 46.7021 51.2829 46.3547 51.7494 46.0287C52.2159 45.6884 52.9227 45.5183 53.8699 45.5183C54.6898 45.5183 55.4037 45.7097 56.0116 46.0925C56.6336 46.4611 57.1142 46.9786 57.4535 47.6449C57.7928 48.2971 57.9624 49.0626 57.9624 49.9416V56.2363H55.2906V50.1543C55.2906 49.3604 55.0927 48.7649 54.6969 48.3679C54.3152 47.9709 53.7639 47.7725 53.0429 47.7725C52.2229 47.7725 51.5868 48.0489 51.1344 48.6019C50.6821 49.1406 50.4559 49.8991 50.4559 50.8773V56.2363H47.7841Z" fill="#464648"/>
<path d="M61.5294 56.2364L59.5785 41.3503H62.3563L63.7983 54.28H64.18L66.046 41.3503H70.8807L72.7468 54.28H73.1285L74.5704 41.3503H77.3483L75.3975 56.2364H70.5627L68.6542 43.0091H68.2726L66.3641 56.2364H61.5294Z" fill="#464648"/>
<path d="M83.722 56.5342C82.6759 56.5342 81.75 56.3144 80.9442 55.8749C80.1525 55.4213 79.5305 54.7904 79.0781 53.9823C78.6399 53.16 78.4207 52.1959 78.4207 51.0901V50.8349C78.4207 49.7291 78.6399 48.7721 79.0781 47.964C79.5164 47.1417 80.1313 46.5109 80.923 46.0714C81.7146 45.6177 82.6335 45.3909 83.6796 45.3909C84.7116 45.3909 85.6094 45.6248 86.3726 46.0926C87.1359 46.5463 87.7299 47.1843 88.1537 48.0066C88.5782 48.8147 88.7901 49.7574 88.7901 50.8349V51.7494H81.135C81.1633 52.4724 81.4318 53.0608 81.9408 53.5144C82.4497 53.9681 83.0717 54.1949 83.8069 54.1949C84.5559 54.1949 85.1073 54.0319 85.4605 53.7058C85.8144 53.3798 86.0825 53.0182 86.2663 52.6212L88.4506 53.7696C88.2532 54.1382 87.963 54.5422 87.581 54.9818C87.2134 55.4071 86.719 55.7757 86.097 56.0876C85.4749 56.3853 84.6835 56.5342 83.722 56.5342ZM81.1562 49.7504H86.0757C86.0195 49.1407 85.7719 48.6516 85.3337 48.283C84.9099 47.9144 84.3509 47.7301 83.6584 47.7301C82.9375 47.7301 82.3649 47.9144 81.9408 48.283C81.5167 48.6516 81.2552 49.1407 81.1562 49.7504Z" fill="#464648"/>
<path d="M105.842 56.2364C105.149 56.2364 104.584 56.0237 104.146 55.5984C103.721 55.1589 103.509 54.5776 103.509 53.8546V47.9002H100.88V45.6885H103.509V42.4136H106.181V45.6885H109.065V47.9002H106.181V53.3867C106.181 53.8121 106.379 54.0247 106.775 54.0247H108.81V56.2364H105.842Z" fill="#464648"/>
<path d="M111.059 56.2364V41.3503H113.731V46.9858H114.113C114.226 46.7589 114.403 46.5321 114.643 46.3053C114.883 46.0784 115.202 45.8942 115.597 45.7524C116.007 45.5964 116.523 45.5184 117.145 45.5184C117.965 45.5184 118.679 45.7098 119.287 46.0926C119.909 46.4612 120.39 46.9787 120.729 47.645C121.068 48.2972 121.238 49.0628 121.238 49.9417V56.2364H118.566V50.1544C118.566 49.3605 118.368 48.765 117.972 48.3681C117.591 47.9711 117.039 47.7726 116.318 47.7726C115.498 47.7726 114.862 48.0491 114.41 48.602C113.957 49.1407 113.731 49.8992 113.731 50.8774V56.2364H111.059Z" fill="#464648"/>
<path d="M128.494 56.5342C127.448 56.5342 126.523 56.3144 125.717 55.8749C124.925 55.4213 124.303 54.7904 123.851 53.9823C123.412 53.16 123.193 52.1959 123.193 51.0901V50.8349C123.193 49.7291 123.412 48.7721 123.851 47.964C124.289 47.1417 124.903 46.5109 125.695 46.0714C126.487 45.6177 127.406 45.3909 128.452 45.3909C129.484 45.3909 130.382 45.6248 131.145 46.0926C131.908 46.5463 132.502 47.1843 132.927 48.0066C133.35 48.8147 133.562 49.7574 133.562 50.8349V51.7494H125.907C125.935 52.4724 126.204 53.0608 126.713 53.5144C127.222 53.9681 127.844 54.1949 128.579 54.1949C129.328 54.1949 129.879 54.0319 130.233 53.7058C130.587 53.3798 130.855 53.0182 131.039 52.6212L133.223 53.7696C133.025 54.1382 132.735 54.5422 132.354 54.9818C131.986 55.4071 131.491 55.7757 130.869 56.0876C130.247 56.3853 129.456 56.5342 128.494 56.5342ZM125.929 49.7504H130.848C130.792 49.1407 130.544 48.6516 130.106 48.283C129.682 47.9144 129.124 47.7301 128.43 47.7301C127.71 47.7301 127.137 47.9144 126.713 48.283C126.289 48.6516 126.027 49.1407 125.929 49.7504Z" fill="#464648"/>
<path d="M135.516 56.2364V45.6885H138.146V46.8794H138.528C138.683 46.4541 138.937 46.1422 139.291 45.9437C139.659 45.7453 140.083 45.646 140.563 45.646H141.835V48.0278H140.521C139.843 48.0278 139.284 48.2121 138.845 48.5807C138.407 48.9351 138.188 49.488 138.188 50.2394V56.2364H135.516Z" fill="#464648"/>
<mask id="mask0_2_1227" style="mask-type:luminance" maskUnits="userSpaceOnUse" x="17" y="1" width="45" height="42">
<path d="M61.7117 1.20239H17.2785V42.9745H61.7117V1.20239Z" fill="white"/>
</mask>
<g mask="url(#mask0_2_1227)">
<path d="M57.3294 24.0977C56.8198 24.0768 56.306 24.0977 55.7922 24.0977C53.7036 24.0977 53.7035 24.0977 53.7495 21.9757C53.8387 19.5216 53.3968 17.0772 52.4537 14.8098C51.5107 12.5423 50.089 10.5053 48.2857 8.83833V8.81744L47.9098 8.48326C46.0315 6.83577 43.8149 5.62003 41.4161 4.92168C39.0172 4.22333 36.4944 4.05933 34.0254 4.44124C31.5563 4.82315 29.201 5.74167 27.1252 7.13216C25.0495 8.52261 23.3038 10.3512 22.011 12.4892L21.9818 12.5352C21.8941 12.6855 21.8022 12.8359 21.7186 12.9863C20.055 15.9284 19.3061 19.2994 19.5673 22.6691C19.6008 23.2288 19.9851 24.0559 18.8489 24.1353C17.8672 24.2021 17.132 24.6909 17.3033 25.8062C17.4746 26.9215 18.3309 27.0593 19.2875 27.0593C20.7704 27.0301 22.2575 27.0593 23.7404 27.0593C24.6928 27.0593 25.3779 27.4436 25.4113 28.4504C25.4405 29.361 24.8599 29.8664 23.9618 29.879C22.8465 29.879 22.1196 30.3928 22.2073 31.5164C22.2951 32.6401 23.2141 32.7696 24.1623 32.7445C26.8232 32.7236 29.4841 32.7195 32.1491 32.7445C33.1308 32.7445 33.8576 33.1623 33.7991 34.3026C33.7448 35.3428 33.0723 35.6728 32.1282 35.6686C30.4908 35.6686 28.8533 35.6686 27.2117 35.6686C26.1715 35.6686 25.1523 35.7229 25.1481 37.0888C25.1439 38.4548 26.1757 38.5007 27.2117 38.4966C32.7423 38.4966 38.2729 38.4966 43.7994 38.4966C46.2055 38.4966 48.6115 38.4966 51.0176 38.4966C51.9951 38.4966 52.8055 38.3169 52.8347 37.1515C52.8681 35.8983 51.9992 35.6477 50.98 35.6728C50.5623 35.6728 50.1446 35.6728 49.7519 35.6728H42.3791C41.4142 35.6728 40.7751 35.255 40.7458 34.2525C40.7166 33.25 41.3808 32.8155 42.3165 32.7487C42.6214 32.7236 42.9305 32.7487 43.2354 32.7487C44.1711 32.7487 45.0442 32.6443 45.1194 31.4621C45.2029 30.209 44.3675 29.9124 43.3315 29.9082C42.3875 29.8581 41.8403 29.3067 41.8403 28.4712C41.8403 27.523 42.4627 27.0092 43.461 27.0385C44.0751 27.0385 44.6933 27.0385 45.3073 27.0385C49.3008 27.0385 53.2942 27.0385 57.2876 27.0385C58.2943 27.0385 59.017 26.721 59.0504 25.5973C59.0838 24.4736 58.2901 24.1395 57.3294 24.0977Z" fill="#EB6D4A"/>
<path d="M56.7342 32.7149C57.512 32.7149 58.1426 32.0843 58.1426 31.3065C58.1426 30.5287 57.512 29.8982 56.7342 29.8982C55.9564 29.8982 55.3259 30.5287 55.3259 31.3065C55.3259 32.0843 55.9564 32.7149 56.7342 32.7149Z" fill="#EB6D4A"/>
<path d="M60.2855 32.7149C61.0633 32.7149 61.6938 32.0843 61.6938 31.3065C61.6938 30.5287 61.0633 29.8982 60.2855 29.8982C59.5077 29.8982 58.8771 30.5287 58.8771 31.3065C58.8771 32.0843 59.5077 32.7149 60.2855 32.7149Z" fill="#EB6D4A"/>
<path d="M60.3733 29.8982H56.5901V32.7149H60.3733V29.8982Z" fill="#EB6D4A"/>
<path d="M48.4362 32.7149C49.214 32.7149 49.8446 32.0843 49.8446 31.3065C49.8446 30.5287 49.214 29.8982 48.4362 29.8982C47.6584 29.8982 47.0279 30.5287 47.0279 31.3065C47.0279 32.0843 47.6584 32.7149 48.4362 32.7149Z" fill="#EB6D4A"/>
<path d="M51.9875 32.7149C52.7653 32.7149 53.3958 32.0843 53.3958 31.3065C53.3958 30.5287 52.7653 29.8982 51.9875 29.8982C51.2097 29.8982 50.5791 30.5287 50.5791 31.3065C50.5791 32.0843 51.2097 32.7149 51.9875 32.7149Z" fill="#EB6D4A"/>
<path d="M52.0753 29.8982H48.2921V32.7149H52.0753V29.8982Z" fill="#EB6D4A"/>
</g>
<path d="M94.465 56.5C93.7162 56.5 93.0448 56.3724 92.4509 56.1172C91.8569 55.8478 91.383 55.465 91.0299 54.9688C90.6904 54.4585 90.521 53.8418 90.521 53.1187C90.521 52.3957 90.6904 51.7932 91.0299 51.3111C91.383 50.8149 91.8638 50.4463 92.4721 50.2053C93.0942 49.9501 93.8005 49.8225 94.5926 49.8225H97.4764V49.2271C97.4764 48.7309 97.3207 48.3268 97.0101 48.0149C96.6987 47.6889 96.2043 47.5258 95.5253 47.5258C94.8607 47.5258 94.3663 47.6817 94.0413 47.9937C93.7162 48.2914 93.5035 48.6812 93.4048 49.1633L90.9448 48.3339C91.1149 47.7952 91.383 47.3061 91.7506 46.8666C92.1326 46.4129 92.6347 46.0514 93.2567 45.782C93.8924 45.4985 94.6633 45.3567 95.5678 45.3567C96.9532 45.3567 98.0491 45.704 98.8549 46.3987C99.6607 47.0934 100.063 48.1 100.063 49.4185V53.3526C100.063 53.778 100.063 53.8205 100.063 54.1607V54.9688V56.2023H99.7238C99.2013 56.2023 98.3392 56.181 97.9215 56.181C97.9215 55.8195 97.9215 55.224 97.9215 54.7987V54.7774H97.519C97.462 54.9476 97.3352 55.1744 97.137 55.458C96.9387 55.7273 96.6281 55.9683 96.2043 56.181C95.7797 56.3937 95.2002 56.5 94.465 56.5ZM94.9314 54.3309C95.681 54.3309 96.2886 54.1253 96.7549 53.7142C97.2357 53.2888 97.4764 52.7289 97.4764 52.0342V51.8215H94.7833C94.2881 51.8215 93.9 51.9278 93.6167 52.1405C93.3342 52.3531 93.1929 52.6509 93.1929 53.0337C93.1929 53.4164 93.341 53.7284 93.638 53.9693C93.9349 54.2103 94.3663 54.3309 94.9314 54.3309Z" fill="#464648"/>
</g>
</g>
<defs>
<clipPath id="clip0_2_1227">
<rect width="150" height="60" fill="white" transform="translate(0 0.5)"/>
</clipPath>
<clipPath id="clip1_2_1227">
<rect width="133.671" height="60" fill="white" transform="translate(8.16455 0.5)"/>
</clipPath>
</defs>
</svg>
