<svg width="151" height="80" viewBox="0 0 151 80" fill="none" xmlns="http://www.w3.org/2000/svg">
<g clip-path="url(#clip0_2_1215)">
<g clip-path="url(#clip1_2_1215)">
<path d="M14.9825 41.6918C14.7691 41.6927 14.5576 41.6511 14.3605 41.5693C14.1634 41.4876 13.9845 41.3673 13.8344 41.2157C13.6843 41.064 13.566 40.8839 13.4863 40.6859C13.4066 40.4879 13.3671 40.2761 13.3703 40.0627V29.2245C13.347 28.6046 13.0843 28.0178 12.6375 27.5875C12.1907 27.1571 11.5944 26.9167 10.9741 26.9167C10.3537 26.9167 9.75745 27.1571 9.31062 27.5875C8.86378 28.0178 8.60112 28.6046 8.57781 29.2245V45.729C8.58185 45.9434 8.54317 46.1565 8.464 46.3558C8.38484 46.5552 8.26678 46.7367 8.11672 46.8899C7.96666 47.0431 7.78759 47.1649 7.58996 47.2482C7.39233 47.3315 7.18009 47.3746 6.96563 47.375H6.93515C6.50008 47.3733 6.08349 47.1989 5.77679 46.8903C5.4701 46.5817 5.29836 46.1641 5.29927 45.729V36.4014C5.29927 35.765 5.04645 35.1546 4.59643 34.7046C4.14641 34.2546 3.53605 34.0018 2.89963 34.0018C2.26321 34.0018 1.65285 34.2546 1.20283 34.7046C0.752815 35.1546 0.499997 35.765 0.499997 36.4014V52.872C0.499997 56.2285 0.259526 55.6933 2.90132 53.5189L11.7243 46.2133C15.5549 42.9687 14.4338 42.9687 18.3254 46.2133L27.1077 53.5189C29.7495 55.7035 29.5056 56.2285 29.5056 52.8822V27.1416C29.4823 26.5216 29.2196 25.9349 28.7728 25.5045C28.326 25.0742 27.7297 24.8337 27.1093 24.8337C26.489 24.8337 25.8927 25.0742 25.4459 25.5045C24.9991 25.9349 24.7364 26.5216 24.7131 27.1416V45.729C24.714 45.9448 24.6723 46.1587 24.5903 46.3584C24.5083 46.5581 24.3877 46.7396 24.2354 46.8925C24.0831 47.0455 23.9021 47.1668 23.7027 47.2496C23.5034 47.3324 23.2897 47.375 23.0738 47.375H23.0433C22.829 47.3746 22.617 47.3315 22.4195 47.2482C22.2221 47.1649 22.0432 47.043 21.8934 46.8897C21.7436 46.7365 21.6259 46.5549 21.5471 46.3556C21.4683 46.1563 21.4301 45.9433 21.4346 45.729V32.9264C21.4113 32.3065 21.1486 31.7197 20.7018 31.2894C20.2549 30.859 19.6587 30.6186 19.0383 30.6186C18.4179 30.6186 17.8217 30.859 17.3749 31.2894C16.928 31.7197 16.6654 32.3065 16.6421 32.9264V40.0627C16.6448 40.2771 16.6046 40.4899 16.5239 40.6885C16.4432 40.8872 16.3236 41.0677 16.1722 41.2195C16.0207 41.3713 15.8404 41.4912 15.6419 41.5724C15.4435 41.6535 15.2308 41.6941 15.0163 41.6918H14.9825Z" fill="url(#paint0_linear_2_1215)"/>
<path d="M44.6282 48.652V35.7444C45.0659 35.4195 45.5456 35.1552 46.0541 34.9586C46.8195 34.6394 47.606 34.3735 48.408 34.1627C49.2782 33.9278 50.1755 33.8082 51.0769 33.8071C51.7869 33.7871 52.4967 33.8542 53.1903 34.0069C53.6078 34.0981 54.0028 34.272 54.3521 34.5183V37.6242C53.9479 37.5379 53.5382 37.4802 53.126 37.4514C52.6315 37.4142 52.1099 37.3905 51.5849 37.3837C51.06 37.3769 50.5485 37.3837 50.071 37.3837C49.6704 37.3935 49.2709 37.4308 48.8754 37.4955V48.6384L44.6282 48.652ZM148.319 48.9365C147.38 48.9628 146.467 48.6296 145.765 48.0051C145.088 47.3841 144.749 46.4629 144.749 45.2413V30.3795H146.815V34.4167H150.517V36.3066H146.815V44.5809C146.775 45.2051 146.904 45.8286 147.188 46.3861C147.438 46.7892 147.943 46.989 148.708 46.989C149.05 46.9905 149.39 46.9564 149.724 46.8874C150 46.835 150.269 46.7532 150.527 46.6435V48.591C150.196 48.7011 149.856 48.7827 149.511 48.8349C149.127 48.9003 148.739 48.9342 148.349 48.9365H148.319ZM136.095 49.1363C135.219 49.1561 134.344 49.05 133.498 48.8213C132.751 48.5904 132.027 48.2934 131.333 47.9339V45.7562C131.927 46.0813 132.453 46.3579 132.912 46.586C133.358 46.81 133.83 46.9773 134.317 47.0838C134.855 47.1954 135.404 47.2488 135.953 47.243C136.779 47.2792 137.595 47.0591 138.29 46.613C138.568 46.4408 138.797 46.2003 138.955 45.9145C139.113 45.6287 139.196 45.3072 139.194 44.9806C139.209 44.7553 139.177 44.5295 139.1 44.3173C139.023 44.1051 138.903 43.9111 138.747 43.7477C138.418 43.4408 138.035 43.1984 137.616 43.0331L136.183 42.4302C135.628 42.2778 135.066 42.1118 134.49 41.9289C133.946 41.7579 133.425 41.5177 132.942 41.2143C132.48 40.9264 132.091 40.5344 131.808 40.0695C131.498 39.5148 131.35 38.8851 131.377 38.2507C131.359 37.6016 131.512 36.9591 131.821 36.3879C132.11 35.8831 132.507 35.4483 132.983 35.1144C133.48 34.7729 134.036 34.5261 134.622 34.3863C135.203 34.2359 135.8 34.1597 136.4 34.1593C137.151 34.1395 137.899 34.2543 138.609 34.498C139.218 34.7283 139.852 34.9857 140.502 35.2736V37.3329C139.775 36.9535 139.124 36.6431 138.551 36.4015C137.902 36.157 137.212 36.042 136.519 36.0628C135.788 36.05 135.065 36.2113 134.409 36.5336C134.127 36.6543 133.888 36.8566 133.722 37.1142C133.556 37.3719 133.471 37.6733 133.477 37.9798C133.465 38.2137 133.501 38.4476 133.583 38.6671C133.664 38.8867 133.79 39.0873 133.951 39.2567C134.302 39.5825 134.721 39.8266 135.178 39.9713C135.692 40.1542 136.247 40.3314 136.841 40.503C137.318 40.6555 137.816 40.8214 138.331 41.0043C138.838 41.1798 139.321 41.42 139.767 41.7189C140.21 42.0182 140.579 42.4157 140.844 42.8807C141.14 43.4448 141.282 44.0766 141.257 44.713C141.292 45.6119 141.02 46.496 140.485 47.2193C139.974 47.871 139.295 48.371 138.52 48.6655C137.747 48.9663 136.925 49.1213 136.095 49.1228V49.1363ZM121.491 49.1363C120.85 49.1347 120.211 49.0677 119.584 48.9365C118.959 48.809 118.358 48.5802 117.806 48.2591C117.26 47.9335 116.805 47.4743 116.485 46.9246C116.13 46.2689 115.96 45.529 115.994 44.7841C115.947 43.7888 116.182 42.8004 116.671 41.9323C117.107 41.228 117.761 40.6855 118.534 40.3879C119.409 40.058 120.339 39.8971 121.274 39.9137C121.954 39.9063 122.634 39.9539 123.306 40.056C123.832 40.139 124.348 40.2787 124.844 40.4726C125.267 40.6417 125.674 40.8479 126.06 41.089L126.463 42.9789C125.881 42.5896 125.236 42.3042 124.556 42.1355C123.664 41.8876 122.742 41.7667 121.816 41.7765C120.61 41.7765 119.686 42.0034 119.035 42.4539C118.716 42.6777 118.459 42.9793 118.288 43.3301C118.117 43.6809 118.039 44.0694 118.06 44.459C118.029 45.078 118.239 45.6849 118.646 46.1524C119.054 46.579 119.57 46.8859 120.14 47.0398C120.741 47.2106 121.364 47.2972 121.989 47.2972C122.938 47.3286 123.888 47.2364 124.814 47.0229C125.098 46.9682 125.352 46.8118 125.529 46.583C125.706 46.3542 125.794 46.0686 125.775 45.7799V39.2262C125.775 38.1186 125.437 37.3092 124.8 36.791C124.163 36.2728 123.222 36.0188 122.016 36.0188C121.198 36.0287 120.384 36.1425 119.594 36.3574C118.798 36.5475 118.05 36.9029 117.4 37.4006V35.3312C118.13 34.8993 118.934 34.6043 119.77 34.4608C120.723 34.263 121.693 34.162 122.666 34.1593C123.255 34.1542 123.843 34.2167 124.417 34.3456C124.919 34.4569 125.401 34.6406 125.85 34.8909C126.264 35.1257 126.63 35.4372 126.927 35.8088C127.225 36.1954 127.455 36.6309 127.604 37.0958C127.774 37.6289 127.856 38.1859 127.848 38.7452V45.6715C127.848 46.6808 127.547 47.4349 126.944 47.9339C126.262 48.4629 125.45 48.7986 124.593 48.906C123.564 49.0639 122.523 49.1409 121.481 49.1363H121.491ZM108.482 48.9365C107.693 48.933 106.908 48.8317 106.145 48.635C105.348 48.4334 104.604 48.0626 103.964 47.5478C103.25 46.9462 102.702 46.172 102.372 45.2989C101.933 44.0981 101.728 42.8242 101.769 41.5462C101.728 40.2771 101.933 39.012 102.372 37.8206C102.679 36.9966 103.184 36.2605 103.842 35.6766C104.5 35.0926 105.29 34.6787 106.145 34.4709C106.908 34.2726 107.693 34.1713 108.482 34.1695C109.208 34.1682 109.933 34.2351 110.646 34.3693C111.357 34.5009 112.054 34.7017 112.726 34.9688V36.9231C112.098 36.6571 111.446 36.4551 110.778 36.3202C110.098 36.1865 109.406 36.1196 108.712 36.1204C107.01 36.1204 105.768 36.5505 104.987 37.4108C104.205 38.2711 103.821 39.6495 103.835 41.5462C103.835 43.4564 104.222 44.836 104.997 45.685C105.771 46.534 107.013 46.9585 108.722 46.9585C109.416 46.9593 110.108 46.8924 110.788 46.7587C111.456 46.6249 112.108 46.4241 112.736 46.1592V48.1609C112.061 48.4129 111.365 48.6044 110.656 48.7333C109.943 48.8686 109.218 48.9367 108.492 48.9365H108.482ZM96.1568 49.221C94.4792 49.221 93.2373 48.827 92.4312 48.0389C91.6251 47.2509 91.2164 46.1344 91.2052 44.6893V30.2745H95.6556V34.2338H98.8223V37.4819H95.6556V44.1474C95.6238 44.5393 95.7358 44.9293 95.9706 45.2447C96.1124 45.3721 96.2796 45.4681 96.4611 45.5265C96.6426 45.5849 96.8344 45.6043 97.0239 45.5834C97.3459 45.5783 97.665 45.5211 97.9688 45.4141C98.274 45.3175 98.562 45.1735 98.8223 44.9873V48.652C98.4144 48.8629 97.9772 49.0113 97.5252 49.0923C97.0783 49.1756 96.6249 49.2187 96.1704 49.221H96.1568ZM73.627 35.4599C74.0886 35.2348 74.5663 35.0446 75.0563 34.8909C75.6928 34.6794 76.3407 34.5041 76.997 34.3659C77.7015 34.2147 78.4094 34.0905 79.1206 33.9934C79.7784 33.9025 80.4414 33.855 81.1054 33.8511C82.2292 33.8236 83.3491 33.9933 84.4144 34.3524C85.2731 34.6416 86.0116 35.2074 86.5143 35.9612C86.9986 36.6995 87.2391 37.7088 87.2391 38.9823V48.6689H82.9885V39.8189C82.9925 39.4795 82.9399 39.1418 82.8327 38.8197C82.7336 38.5283 82.573 38.2615 82.3619 38.0374C82.1214 37.8006 81.8275 37.6252 81.505 37.5259C81.0802 37.3918 80.6362 37.3289 80.1909 37.3397C79.7494 37.3396 79.3094 37.3919 78.8801 37.4955C78.5357 37.5714 78.2007 37.685 77.881 37.8341V48.6723H73.627V35.4599ZM63.6593 49.0787C62.3253 49.1044 61.0062 48.7958 59.8219 48.1812C58.724 47.5989 57.8209 46.7075 57.2242 45.6173C56.578 44.3938 56.2584 43.0242 56.2962 41.641C56.2962 39.1347 56.9193 37.1929 58.1657 35.8155C59.4121 34.4382 61.1959 33.7495 63.5171 33.7495C65.1112 33.7495 66.3993 34.0882 67.3815 34.7656C68.4038 35.5036 69.1595 36.5528 69.5356 37.7562C70.0273 39.302 70.2496 40.9209 70.1927 42.542H59.2055L58.7517 39.8324H66.6838L66.0573 41.1703C66.0369 39.6326 65.8179 38.551 65.4002 37.9256C64.9825 37.3001 64.2972 36.9863 63.3443 36.984C62.8362 36.9767 62.3366 37.1155 61.9049 37.3837C61.4278 37.6992 61.0701 38.1654 60.8888 38.708C60.6247 39.5311 60.51 40.3948 60.5501 41.2583C60.5501 42.6266 60.8775 43.6811 61.5323 44.4217C62.1871 45.1623 63.2382 45.5326 64.6856 45.5326C65.2193 45.5314 65.7512 45.4689 66.2706 45.3463C66.7689 45.2288 67.2597 45.0817 67.7406 44.906C68.1922 44.7322 68.5816 44.5798 68.909 44.4488V48.0999C68.1662 48.4012 67.3976 48.6347 66.6127 48.7976C65.6406 48.993 64.6508 49.0872 63.6593 49.0787Z" fill="#377DFF"/>
</g>
</g>
<defs>
<linearGradient id="paint0_linear_2_1215" x1="29.2753" y1="40.0017" x2="0.733694" y2="40.0017" gradientUnits="userSpaceOnUse">
<stop stop-color="#377DFF"/>
<stop offset="0.03" stop-color="#3580FD"/>
<stop offset="0.46" stop-color="#18A8EB"/>
<stop offset="0.79" stop-color="#06C0DF"/>
<stop offset="1" stop-color="#00C9DB"/>
</linearGradient>
<clipPath id="clip0_2_1215">
<rect width="150" height="80" fill="white" transform="translate(0.5)"/>
</clipPath>
<clipPath id="clip1_2_1215">
<rect width="150" height="30.5399" fill="white" transform="translate(0.5 24.7301)"/>
</clipPath>
</defs>
</svg>
